<?xml version="1.0" encoding="UTF-8"?>
<svg id="Layer_1" data-name="Layer 1" xmlns="http://www.w3.org/2000/svg" viewBox="0 0 1920 540">
  <defs>
    <style>
      .cls-1 {
        fill: var(--adapt-logo-secondary, #690052);;
      }

      .cls-1, .cls-2 {
        stroke-width: 0px;
      }

      .cls-2 {
        fill: var(--adapt-logo-primary, #1f577c);
      }
    </style>
  </defs>
  <g>
    <path class="cls-2" d="M43.12,439.4l91.79-256.73h54.86s91.79,256.73,91.79,256.73h-51.67l-20.95-59.48h-92.5l-21.31,59.48h-52.02ZM128.16,334.65h68.18l-33.91-102.09-34.27,102.09Z"/>
    <path class="cls-2" d="M320.08,439.4V182.67c1.3,0,71.25.24,76.7.36,31.13.71,56.49,6.27,76.08,16.69,19.59,10.42,34,24.98,43.23,43.68,9.23,18.7,13.85,40.83,13.85,66.4s-4.85,49.62-14.56,68.98c-9.71,19.35-24.53,34.3-44.47,44.83-19.95,10.54-45.25,15.8-75.9,15.8h-74.92ZM372.28,397.5h23.79c14.67,0,28.02-2.84,40.04-8.52,12.01-5.68,21.63-14.97,28.85-27.87,7.22-12.9,10.83-30.12,10.83-51.67,0-29.94-7.07-51.58-21.22-64.89-14.15-13.32-33.41-19.97-57.79-19.97h-24.5v172.93Z"/>
    <path class="cls-2" d="M545.38,439.4l91.79-256.73h54.86s91.79,256.73,91.79,256.73h-51.67l-20.95-59.48h-92.5l-21.31,59.48h-52.02ZM630.42,334.65h68.18l-33.91-102.09-34.27,102.09Z"/>
    <path class="cls-2" d="M822.34,439.4V182.67h94.45c18.7,0,35.45,3.23,50.24,9.68,14.79,6.45,26.48,15.95,35.06,28.5,8.58,12.55,12.87,27.87,12.87,45.98,0,25.57-8.32,45.45-24.95,59.65-16.63,14.2-38.79,21.31-66.49,21.31h-49v91.61h-52.2ZM874.01,307.66h48.11c12.9,0,23.52-4.17,31.87-12.52,8.34-8.34,12.52-18.67,12.52-30.98s-4.38-22.93-13.14-30.45c-8.76-7.52-19.41-11.27-31.96-11.27h-47.4v85.22Z"/>
    <path class="cls-2" d="M1109.61,439.4v-210.57h-77.59v-46.16h205.42v46.16h-75.81v210.57h-52.02Z"/>
  </g>
  <g>
    <path class="cls-1" d="M1356.91,334.52h68.32c13.53,0,24.5-10.97,24.5-24.5,0-13.53-10.97-24.5-24.5-24.5h-68.32c-13.53,0-24.5,10.97-24.5,24.5s10.97,24.5,24.5,24.5Z"/>
    <path class="cls-1" d="M1389.89,440.07h67.14c13.53,0,24.5-10.97,24.5-24.5s-10.97-24.5-24.5-24.5h-67.14c-13.53,0-24.5,10.97-24.5,24.5,0,13.53,10.97,24.5,24.5,24.5Z"/>
    <path class="cls-1" d="M1313.33,231.2h141.34c13.53,0,24.5-10.97,24.5-24.5s-10.97-24.5-24.5-24.5h-141.34c-13.53,0-24.5,10.97-24.5,24.5,0,13.53,10.97,24.5,24.5,24.5Z"/>
    <path class="cls-1" d="M1356.91,334.52h68.32c13.53,0,24.5-10.97,24.5-24.5,0-13.53-10.97-24.5-24.5-24.5h-68.32c-13.53,0-24.5,10.97-24.5,24.5s10.97,24.5,24.5,24.5Z"/>
    <path class="cls-1" d="M1389.89,440.07h67.14c13.53,0,24.5-10.97,24.5-24.5s-10.97-24.5-24.5-24.5h-67.14c-13.53,0-24.5,10.97-24.5,24.5,0,13.53,10.97,24.5,24.5,24.5Z"/>
    <path class="cls-1" d="M1313.33,231.2h141.34c13.53,0,24.5-10.97,24.5-24.5s-10.97-24.5-24.5-24.5h-141.34c-13.53,0-24.5,10.97-24.5,24.5,0,13.53,10.97,24.5,24.5,24.5Z"/>
    <path class="cls-1" d="M1577.89,60.24c0-13.83,11.21-25.05,25.05-25.05,13.83,0,25.05,11.21,25.05,25.05v56.29c0,1.78-.19,3.51-.54,5.18v14.12c0,13.53-10.97,24.5-24.5,24.5-13.53,0-24.5-10.97-24.5-24.5v-14.12c-.35-1.67-.54-3.4-.54-5.18v-56.29Z"/>
    <path class="cls-1" d="M1785.7,284.65h5.01c1.67-.35,3.4-.54,5.18-.54h55.95c13.83,0,25.05,11.21,25.05,25.05s-11.21,25.05-25.05,25.05h-55.95c-1.78,0-3.51-.19-5.18-.54h-5.01c-13.53,0-24.5-10.97-24.5-24.5,0-13.53,10.97-24.5,24.5-24.5Z"/>
    <path class="cls-1" d="M1715.3,162.14l2.59-2.59c.93-1.43,2.02-2.79,3.28-4.05l41.84-41.84c9.78-9.78,25.64-9.78,35.42,0,9.78,9.78,9.78,25.64,0,35.42l-41.84,41.84c-1.26,1.26-2.62,2.35-4.05,3.28l-2.59,2.59c-4.78,4.78-11.05,7.18-17.33,7.18-6.27,0-12.54-2.39-17.33-7.18-9.57-9.57-9.57-25.08,0-34.65Z"/>
    <path class="cls-2" d="M1474.24,308.33c0,34.62,13.48,67.16,37.96,91.64,25.27,25.27,58.45,37.9,91.64,37.9,24.87,0,49.73-7.09,71.26-21.28l80.87,80.88c4.89,4.89,11.3,7.34,17.71,7.34,6.41,0,12.82-2.44,17.71-7.34,9.78-9.78,9.78-25.64,0-35.42l-80.57-80.57c14.69-21.38,22.61-46.65,22.61-73.15,0-34.62-13.48-67.16-37.96-91.64-50.53-50.53-132.75-50.53-183.28,0-24.48,24.48-37.96,57.02-37.96,91.64ZM1523.25,308.33c0-21.53,8.38-41.77,23.6-56.99,15.71-15.71,36.35-23.57,56.99-23.57,20.64,0,41.28,7.85,56.99,23.57,15.22,15.22,23.6,35.46,23.6,56.99,0,21.53-8.38,41.77-23.6,56.99-31.42,31.42-82.55,31.43-113.98,0-15.22-15.22-23.6-35.46-23.6-56.99Z"/>
  </g>
</svg>