<?xml version="1.0" encoding="UTF-8"?>
<svg id="Layer_1" data-name="Layer 1" xmlns="http://www.w3.org/2000/svg" viewBox="0 0 1192.85 932.17">
  <defs>
    <style>
     .cls-1 {
        fill: var(--adapt-logo-secondary, #690052);;
      }

      .cls-1, .cls-2 {
        stroke-width: 0px;
      }

      .cls-2 {
        fill: var(--adapt-logo-primary, #1f577c);
      }
    </style>
  </defs>
  <path class="cls-1" d="M176.32,575.49h123.32c24.43,0,44.23-19.8,44.23-44.23,0-24.43-19.8-44.23-44.23-44.23h-123.32c-24.43,0-44.23,19.8-44.23,44.23,0,24.43,19.8,44.23,44.23,44.23Z"/>
  <path class="cls-1" d="M235.85,766.02h121.19c24.43,0,44.23-19.8,44.23-44.23s-19.8-44.23-44.23-44.23h-121.19c-24.43,0-44.23,19.8-44.23,44.23,0,24.43,19.8,44.23,44.23,44.23Z"/>
  <path class="cls-1" d="M97.65,388.99h255.13c24.43,0,44.23-19.8,44.23-44.23,0-24.43-19.8-44.23-44.23-44.23H97.65c-24.43,0-44.23,19.8-44.23,44.23,0,24.43,19.8,44.23,44.23,44.23Z"/>
  <path class="cls-1" d="M176.32,575.49h123.32c24.43,0,44.23-19.8,44.23-44.23,0-24.43-19.8-44.23-44.23-44.23h-123.32c-24.43,0-44.23,19.8-44.23,44.23,0,24.43,19.8,44.23,44.23,44.23Z"/>
  <path class="cls-1" d="M235.85,766.02h121.19c24.43,0,44.23-19.8,44.23-44.23s-19.8-44.23-44.23-44.23h-121.19c-24.43,0-44.23,19.8-44.23,44.23,0,24.43,19.8,44.23,44.23,44.23Z"/>
  <path class="cls-1" d="M97.65,388.99h255.13c24.43,0,44.23-19.8,44.23-44.23,0-24.43-19.8-44.23-44.23-44.23H97.65c-24.43,0-44.23,19.8-44.23,44.23,0,24.43,19.8,44.23,44.23,44.23Z"/>
  <path class="cls-1" d="M575.21,80.41c0-24.97,20.24-45.21,45.21-45.21,24.97,0,45.21,20.24,45.21,45.21v101.61c0,3.21-.35,6.33-.98,9.35v25.49c0,24.43-19.8,44.23-44.23,44.23-24.43,0-44.23-19.8-44.23-44.23v-25.49c-.64-3.02-.98-6.14-.98-9.35v-101.61Z"/>
  <path class="cls-1" d="M950.33,485.47h9.04c3.02-.63,6.14-.98,9.35-.98h100.99c24.97,0,45.21,20.24,45.21,45.21,0,24.97-20.24,45.21-45.21,45.21h-100.99c-3.21,0-6.33-.34-9.35-.98h-9.04c-24.43,0-44.23-19.8-44.23-44.23,0-24.43,19.8-44.23,44.23-44.23Z"/>
  <path class="cls-1" d="M823.24,264.33l4.68-4.68c1.69-2.59,3.65-5.04,5.92-7.31l75.52-75.52c17.65-17.66,46.28-17.66,63.93,0,17.66,17.65,17.66,46.28,0,63.93l-75.52,75.52c-2.27,2.27-4.73,4.24-7.31,5.93l-4.68,4.68c-8.64,8.64-19.95,12.96-31.27,12.96-11.32,0-22.64-4.32-31.27-12.96-17.27-17.27-17.27-45.28,0-62.55Z"/>
  <path class="cls-2" d="M388.12,528.22c0,62.48,24.34,121.23,68.52,165.41,45.61,45.61,105.51,68.41,165.41,68.41,44.88,0,89.77-12.8,128.64-38.4l145.98,145.99c8.83,8.83,20.4,13.24,31.97,13.24,11.57,0,23.14-4.41,31.97-13.24,17.66-17.65,17.66-46.28,0-63.93l-145.43-145.43c26.51-38.59,40.81-84.21,40.81-132.04,0-62.48-24.33-121.23-68.52-165.41-91.21-91.21-239.62-91.22-330.83,0-44.18,44.18-68.52,102.93-68.52,165.41ZM476.57,528.22c0-38.86,15.13-75.39,42.61-102.87,28.36-28.36,65.62-42.54,102.87-42.54,37.26,0,74.51,14.18,102.87,42.54,27.48,27.48,42.61,64.01,42.61,102.87,0,38.86-15.13,75.39-42.61,102.87-56.72,56.72-149.01,56.73-205.74,0-27.48-27.48-42.61-64.01-42.61-102.87Z"/>
</svg>