<?xml version="1.0" encoding="UTF-8"?>
<svg id="Layer_1" data-name="Layer 1" xmlns="http://www.w3.org/2000/svg" version="1.1" viewBox="0 0 1920 540">
  <defs>
    <style>
      .cls-1 {
        fill: var(--adapt-logo-secondary, #690052);;
      }

      .cls-1, .cls-2 {
        stroke-width: 0px;
      }

      .cls-2 {
        fill: var(--adapt-logo-primary, #1f577c);
      }
    </style>
  </defs>
  <g>
    <path class="cls-2" d="M43.1,426l91.8-256.7h54.9l91.8,256.7h-51.7l-20.9-59.5h-92.5l-21.3,59.5h-52,0ZM128.2,321.3h68.2l-33.9-102.1-34.3,102.1h0Z"/>
    <path class="cls-2" d="M320.1,426V169.3c1.3,0,71.2.2,76.7.4,31.1.7,56.5,6.3,76.1,16.7,19.6,10.4,34,25,43.2,43.7,9.2,18.7,13.8,40.8,13.8,66.4s-4.8,49.6-14.6,69c-9.7,19.4-24.5,34.3-44.5,44.8-20,10.5-45.2,15.8-75.9,15.8h-74.9ZM372.3,384.1h23.8c14.7,0,28-2.8,40-8.5,12-5.7,21.6-15,28.9-27.9s10.8-30.1,10.8-51.7-7.1-51.6-21.2-64.9c-14.1-13.3-33.4-20-57.8-20h-24.5v172.9h0Z"/>
    <path class="cls-2" d="M545.4,426l91.8-256.7h54.9l91.8,256.7h-51.7l-21-59.5h-92.5l-21.3,59.5h-52,0ZM630.4,321.3h68.2l-33.9-102.1-34.3,102.1Z"/>
    <path class="cls-2" d="M822.3,426V169.3h94.5c18.7,0,35.5,3.2,50.2,9.7s26.5,15.9,35.1,28.5,12.9,27.9,12.9,46-8.3,45.4-25,59.7-38.8,21.3-66.5,21.3h-49v91.6h-52.2,0ZM874,294.3h48.1c12.9,0,23.5-4.2,31.9-12.5,8.3-8.3,12.5-18.7,12.5-31s-4.4-22.9-13.1-30.4c-8.8-7.5-19.4-11.3-32-11.3h-47.4v85.2h0Z"/>
    <path class="cls-2" d="M1109.6,426v-210.6h-77.6v-46.2h205.4v46.2h-75.8v210.6h-52Z"/>
  </g>
  <g>
    <path class="cls-1" d="M1356.9,321.1h68.3c13.5,0,24.5-11,24.5-24.5s-11-24.5-24.5-24.5h-68.3c-13.5,0-24.5,11-24.5,24.5s11,24.5,24.5,24.5Z"/>
    <path class="cls-1" d="M1389.9,426.7h67.1c13.5,0,24.5-11,24.5-24.5s-11-24.5-24.5-24.5h-67.1c-13.5,0-24.5,11-24.5,24.5s11,24.5,24.5,24.5Z"/>
    <path class="cls-1" d="M1313.3,217.8h141.3c13.5,0,24.5-11,24.5-24.5s-11-24.5-24.5-24.5h-141.3c-13.5,0-24.5,11-24.5,24.5s11,24.5,24.5,24.5Z"/>
    <path class="cls-1" d="M1356.9,321.1h68.3c13.5,0,24.5-11,24.5-24.5s-11-24.5-24.5-24.5h-68.3c-13.5,0-24.5,11-24.5,24.5s11,24.5,24.5,24.5Z"/>
    <path class="cls-1" d="M1389.9,426.7h67.1c13.5,0,24.5-11,24.5-24.5s-11-24.5-24.5-24.5h-67.1c-13.5,0-24.5,11-24.5,24.5s11,24.5,24.5,24.5Z"/>
    <path class="cls-1" d="M1313.3,217.8h141.3c13.5,0,24.5-11,24.5-24.5s-11-24.5-24.5-24.5h-141.3c-13.5,0-24.5,11-24.5,24.5s11,24.5,24.5,24.5Z"/>
    <path class="cls-1" d="M1577.9,46.9c0-13.8,11.2-25,25.1-25s25.1,11.2,25.1,25v56.3c0,1.8-.2,3.5-.5,5.2v14.1c0,13.5-11,24.5-24.5,24.5s-24.5-11-24.5-24.5v-14.1c-.3-1.7-.5-3.4-.5-5.2v-56.3h0Z"/>
    <path class="cls-1" d="M1785.7,271.3h5c1.7-.4,3.4-.5,5.2-.5h55.9c13.8,0,25.1,11.2,25.1,25s-11.2,25-25.1,25h-55.9c-1.8,0-3.5-.2-5.2-.5h-5c-13.5,0-24.5-11-24.5-24.5s11-24.5,24.5-24.5h0Z"/>
    <path class="cls-1" d="M1715.3,148.8l2.6-2.6c.9-1.4,2-2.8,3.3-4.1l41.8-41.8c9.8-9.8,25.6-9.8,35.4,0s9.8,25.6,0,35.4l-41.8,41.8c-1.3,1.3-2.6,2.4-4.1,3.3l-2.6,2.6c-4.8,4.8-11.1,7.2-17.3,7.2s-12.5-2.4-17.3-7.2c-9.6-9.6-9.6-25.1,0-34.6h0Z"/>
    <path class="cls-2" d="M1474.2,294.9c0,34.6,13.5,67.2,38,91.6,25.3,25.3,58.4,37.9,91.6,37.9s49.7-7.1,71.3-21.3l80.9,80.9c4.9,4.9,11.3,7.3,17.7,7.3s12.8-2.4,17.7-7.3c9.8-9.8,9.8-25.6,0-35.4l-80.6-80.6c14.7-21.4,22.6-46.6,22.6-73.1s-13.5-67.2-38-91.6c-50.5-50.5-132.8-50.5-183.3,0-24.5,24.5-38,57-38,91.6h0ZM1523.2,294.9c0-21.5,8.4-41.8,23.6-57,15.7-15.7,36.3-23.6,57-23.6s41.3,7.9,57,23.6c15.2,15.2,23.6,35.5,23.6,57s-8.4,41.8-23.6,57c-31.4,31.4-82.6,31.4-114,0-15.2-15.2-23.6-35.5-23.6-57Z"/>
  </g>
  <g>
    <path class="cls-2" d="M38.6,519.3l18.5-52.2h12.7l18.6,52.2h-12.2l-3.9-11.1h-17.6l-3.9,11.1h-12.3ZM57.5,497.6h12.1l-6-18.7-6.1,18.7Z"/>
    <path class="cls-2" d="M109.5,520c-3.5,0-6.7-.8-9.4-2.4s-5-3.8-6.6-6.7c-1.6-2.9-2.4-6.3-2.4-10.1s.8-7.3,2.3-10.2c1.6-2.9,3.7-5.2,6.5-6.9,2.8-1.6,6-2.5,9.6-2.5s6.2.7,8.5,2.1,4.2,3.2,5.4,5.5c1.3,2.3,2,4.8,2.1,7.5h-10.1c-.1-.8-.4-1.7-.8-2.6s-1-1.7-1.9-2.3c-.8-.6-1.9-1-3.2-1-2.1,0-3.9.8-5.2,2.5-1.3,1.7-2,4.3-2,7.7s.7,6,2,7.9c1.3,1.9,3.1,2.8,5.4,2.8s2.4-.3,3.2-1c.8-.7,1.4-1.5,1.8-2.4.4-.9.7-1.7.8-2.4h9.8c0,2.6-.8,5-2.1,7.2s-3.1,3.9-5.5,5.3-5.1,2-8.3,2Z"/>
    <path class="cls-2" d="M149,520c-3.5,0-6.7-.8-9.4-2.4-2.8-1.6-5-3.8-6.6-6.7-1.6-2.9-2.4-6.3-2.4-10.1s.8-7.3,2.3-10.2c1.6-2.9,3.7-5.2,6.5-6.9,2.8-1.6,6-2.5,9.6-2.5s6.1.7,8.5,2.1c2.3,1.4,4.2,3.2,5.4,5.5s2,4.8,2.1,7.5h-10.1c-.1-.8-.4-1.7-.8-2.6-.4-.9-1-1.7-1.9-2.3s-1.9-1-3.2-1c-2.1,0-3.9.8-5.2,2.5-1.3,1.7-2,4.3-2,7.7s.7,6,2,7.9c1.3,1.9,3.1,2.8,5.4,2.8s2.4-.3,3.2-1,1.4-1.5,1.8-2.4c.4-.9.7-1.7.8-2.4h9.8c0,2.6-.8,5-2.1,7.2-1.3,2.2-3.1,3.9-5.5,5.3-2.3,1.3-5.1,2-8.3,2Z"/>
    <path class="cls-2" d="M189.5,520c-3.8,0-7.1-.8-10-2.3-2.9-1.6-5.1-3.8-6.7-6.6-1.6-2.8-2.4-6.2-2.4-10s.7-6.9,2.2-10c1.5-3,3.6-5.4,6.3-7.2,2.8-1.8,6.1-2.7,10-2.7s7.2.8,9.9,2.5c2.6,1.6,4.6,3.9,6,6.8,1.3,2.9,2,6.2,2,9.9v3.1h-24.3c0,2.5.6,4.5,1.8,5.8,1.2,1.3,2.8,2,4.9,2s2.9-.3,4.1-1,2.1-1.8,2.6-3.3h11c-.4,2.7-1.5,5-3.2,7-1.7,1.9-3.9,3.4-6.4,4.5-2.5,1-5.1,1.6-7.8,1.6ZM182.5,496.4h12.9c0-1.8-.5-3.4-1.6-4.7-1.1-1.3-2.7-2-4.9-2s-3.5.7-4.7,2.1-1.8,2.9-1.8,4.7Z"/>
    <path class="cls-2" d="M229.3,520c-2.6,0-5.1-.4-7.6-1.3-2.5-.9-4.6-2.2-6.3-4.1s-2.9-4.4-3.4-7.4h10.5c.3,1.3.9,2.2,1.7,2.9s1.7,1.1,2.6,1.4c.9.3,1.8.4,2.5.4,1.8,0,3.2-.3,4.3-.8,1.1-.5,1.7-1.3,1.7-2.3s-.3-1.5-1-2c-.7-.5-1.9-.9-3.6-1.2l-6-1.1c-3.4-.6-6.2-1.8-8.3-3.6-2.1-1.7-3.2-4.2-3.2-7.4,0-2.3.6-4.3,1.8-6.2,1.3-1.8,3.1-3.3,5.5-4.3,2.4-1.1,5.4-1.6,8.9-1.6s8.7,1.1,11.6,3.2c2.9,2.1,4.3,5,4.3,8.7h-10.1c-.3-1.3-.9-2.2-2-2.9s-2.4-1-3.9-1-2.8.3-3.9.8c-1,.5-1.6,1.3-1.6,2.3s.5,1.4,1.4,1.9c.9.5,2.4.9,4.4,1.3l5.4,1.1c3,.7,5.2,1.8,6.8,3.1s2.6,2.8,3.1,4.3c.5,1.5.8,2.8.8,3.9,0,2.6-.7,4.7-2.1,6.5s-3.3,3.1-5.8,4.1c-2.5.9-5.3,1.4-8.4,1.4Z"/>
    <path class="cls-2" d="M267.7,520c-2.6,0-5.1-.4-7.6-1.3-2.5-.9-4.6-2.2-6.3-4.1-1.8-1.9-2.9-4.4-3.4-7.4h10.5c.3,1.3.9,2.2,1.7,2.9.8.7,1.7,1.1,2.6,1.4s1.8.4,2.5.4c1.8,0,3.2-.3,4.3-.8,1.1-.5,1.7-1.3,1.7-2.3s-.3-1.5-1-2c-.7-.5-1.9-.9-3.6-1.2l-6-1.1c-3.4-.6-6.2-1.8-8.3-3.6-2.1-1.7-3.1-4.2-3.2-7.4,0-2.3.6-4.3,1.8-6.2s3.1-3.3,5.5-4.3c2.4-1.1,5.4-1.6,8.9-1.6s8.7,1.1,11.6,3.2c2.9,2.1,4.3,5,4.3,8.7h-10.1c-.3-1.3-.9-2.2-2-2.9-1.1-.7-2.4-1-3.9-1s-2.8.3-3.9.8c-1,.5-1.6,1.3-1.6,2.3s.5,1.4,1.4,1.9,2.4.9,4.4,1.3l5.4,1.1c3,.7,5.2,1.8,6.8,3.1s2.6,2.8,3.1,4.3c.5,1.5.8,2.8.8,3.9,0,2.6-.7,4.7-2.1,6.5s-3.3,3.1-5.8,4.1c-2.5.9-5.3,1.4-8.4,1.4Z"/>
    <path class="cls-2" d="M290.7,477.8v-10.7h11.8v10.7h-11.8ZM290.7,519.3v-37.3h11.7v37.3h-11.7Z"/>
    <path class="cls-2" d="M332.5,520c-3.3,0-5.9-.8-7.7-2.4-1.8-1.6-3.1-3.6-3.8-5.9l-1.4,7.6h-8.8v-53.6h12.3v21c1-1.8,2.5-3.1,4.5-4,1.9-.9,4-1.4,6.3-1.4,4.6,0,8.2,1.7,10.8,5.1,2.6,3.4,3.9,8.1,3.9,14.1s-1.4,10.7-4.1,14.2c-2.7,3.6-6.7,5.4-11.9,5.4ZM329.7,511.3c1.9,0,3.6-.8,4.9-2.5,1.3-1.6,2-4.5,2-8.5s-.6-6.3-1.9-7.9c-1.3-1.6-2.9-2.4-5-2.4s-3.7.8-4.9,2.5c-1.1,1.6-1.7,4.3-1.8,7.8,0,4,.6,6.9,1.7,8.5,1.2,1.6,2.8,2.5,4.9,2.5Z"/>
    <path class="cls-2" d="M368,520c-3.1,0-5.5-.3-7.3-1-1.8-.7-3.1-1.6-3.9-2.7s-1.3-2.4-1.5-3.8-.3-2.7-.3-4.1v-42.7h12v41.2c0,1.1.3,2.1.8,2.9.5.8,1.7,1.4,3.4,1.6h1.6v7.6c-.8.3-1.6.5-2.4.7s-1.6.3-2.4.3Z"/>
    <path class="cls-2" d="M394.9,520c-3.8,0-7.1-.8-10-2.3-2.9-1.6-5.1-3.8-6.7-6.6-1.6-2.8-2.4-6.2-2.4-10s.7-6.9,2.2-10c1.5-3,3.6-5.4,6.3-7.2,2.8-1.8,6.1-2.7,10-2.7s7.2.8,9.9,2.5c2.6,1.6,4.6,3.9,6,6.8,1.3,2.9,2,6.2,2,9.9v3.1h-24.3c0,2.5.6,4.5,1.8,5.8,1.2,1.3,2.8,2,4.9,2s2.9-.3,4.1-1,2.1-1.8,2.6-3.3h11c-.4,2.7-1.5,5-3.2,7-1.7,1.9-3.9,3.4-6.4,4.5-2.5,1-5.1,1.6-7.8,1.6ZM387.9,496.4h12.9c0-1.8-.5-3.4-1.6-4.7-1.1-1.3-2.7-2-4.9-2s-3.5.7-4.7,2.1-1.8,2.9-1.8,4.7Z"/>
    <path class="cls-2" d="M435.9,519.3v-52.2h7.4c1.9,0,3.7,0,5.4,0s3.2,0,4.4,0c6.3.2,11.4,1.4,15.4,3.5,4,2.2,6.9,5.1,8.8,8.9s2.8,8.2,2.8,13.3-1,9.8-2.9,13.8c-1.9,3.9-4.9,7-9,9.2-4,2.2-9.1,3.3-15.3,3.3h-17ZM448.3,509.5h5c2.4,0,4.6-.5,6.8-1.6,2.2-1.1,3.9-2.8,5.3-5.3,1.4-2.4,2-5.7,2-9.8s-1.3-9.4-3.8-12-5.9-3.9-10.2-3.9h-5v32.6Z"/>
    <path class="cls-2" d="M498.8,520c-2.4,0-4.5-.5-6.5-1.4-1.9-.9-3.5-2.2-4.6-3.9-1.1-1.7-1.7-3.8-1.7-6.3,0-4.1,1.6-7.2,4.7-9.4,3.1-2.2,8-3.3,14.7-3.3h3.8v-1.9c0-3-1.7-4.4-5.1-4.4-1.3,0-2.5.4-3.8.9-1.3.6-2.2,1.6-2.7,3.1h-10.1c.1-2.8.9-5.1,2.5-6.9s3.6-3.1,6.1-3.9,5.4-1.3,8.5-1.3,7.3.5,9.7,1.4c2.4,1,4.1,2.3,5.1,4.1s1.5,3.8,1.5,6.2v26.3h-10.2l-1-6.2c-1.2,2.6-2.7,4.4-4.5,5.4-1.8,1-3.9,1.5-6.5,1.5ZM503.1,512.1c1.6,0,3.1-.5,4.3-1.6,1.2-1.1,1.9-2.3,1.9-3.8v-5.1h-3c-1.3,0-2.5.2-3.9.5-1.3.3-2.4.9-3.4,1.7-.9.8-1.4,1.9-1.4,3.2s.5,2.8,1.6,3.7c1.1.9,2.3,1.3,3.8,1.3Z"/>
    <path class="cls-2" d="M544.7,519.8c-3.6,0-6.4-.5-8.3-1.4-2-.9-3.3-2.1-4.1-3.7-.8-1.6-1.1-3.4-1.1-5.4v-18.9h-6.1v-8.4h6.5l3.1-11.4h8.7v11.4h8.2v8.5h-8.2v18.4c0,1.1.3,1.8.8,2.1.5.3,1.2.5,2,.5h5.4v7.4c-.5.2-1.3.5-2.3.7-1.1.2-2.6.3-4.7.3Z"/>
    <path class="cls-2" d="M569.8,520c-2.4,0-4.5-.5-6.5-1.4-1.9-.9-3.5-2.2-4.6-3.9-1.1-1.7-1.7-3.8-1.7-6.3,0-4.1,1.6-7.2,4.7-9.4,3.1-2.2,8-3.3,14.7-3.3h3.8v-1.9c0-3-1.7-4.4-5.1-4.4-1.3,0-2.5.4-3.8.9-1.3.6-2.2,1.6-2.7,3.1h-10.1c.1-2.8.9-5.1,2.5-6.9s3.6-3.1,6.1-3.9c2.5-.8,5.4-1.3,8.5-1.3s7.3.5,9.7,1.4c2.4,1,4.1,2.3,5.1,4.1s1.5,3.8,1.5,6.2v26.3h-10.2l-1-6.2c-1.2,2.6-2.7,4.4-4.5,5.4-1.8,1-3.9,1.5-6.5,1.5ZM574,512.1c1.6,0,3.1-.5,4.3-1.6,1.3-1.1,1.9-2.3,1.9-3.8v-5.1h-3c-1.3,0-2.5.2-3.9.5-1.3.3-2.4.9-3.4,1.7s-1.4,1.9-1.4,3.2.5,2.8,1.6,3.7c1.1.9,2.3,1.3,3.8,1.3Z"/>
    <path class="cls-2" d="M612.9,519.3l18.5-52.2h12.7l18.6,52.2h-12.2l-3.9-11.1h-17.6l-3.9,11.1h-12.3ZM631.8,497.6h12.1l-6-18.7-6.1,18.7Z"/>
    <path class="cls-2" d="M668.4,519.3v-37.3h12.1v5.2c.8-1.3,2-2.5,3.6-3.7,1.6-1.2,3.9-1.8,6.8-1.8s4.3.4,6.3,1.3c2,.9,3.6,2.2,4.9,4.1s1.9,4.4,1.9,7.4v24.7h-12.3v-23.1c0-1.6-.5-2.9-1.6-3.7-1.1-.8-2.3-1.2-3.6-1.2s-2.7.4-3.9,1.2-1.8,1.9-1.8,3.5v23.4h-12.3Z"/>
    <path class="cls-2" d="M722.7,520c-2.4,0-4.5-.5-6.5-1.4-1.9-.9-3.5-2.2-4.6-3.9-1.1-1.7-1.7-3.8-1.7-6.3,0-4.1,1.6-7.2,4.7-9.4,3.1-2.2,8-3.3,14.7-3.3h3.8v-1.9c0-3-1.7-4.4-5.1-4.4-1.3,0-2.5.4-3.8.9-1.3.6-2.2,1.6-2.7,3.1h-10.1c.1-2.8.9-5.1,2.5-6.9s3.6-3.1,6.1-3.9c2.5-.8,5.4-1.3,8.5-1.3s7.3.5,9.7,1.4c2.4,1,4.1,2.3,5.1,4.1,1,1.8,1.5,3.8,1.5,6.2v26.3h-10.2l-1-6.2c-1.2,2.6-2.7,4.4-4.5,5.4-1.8,1-3.9,1.5-6.5,1.5ZM727,512.1c1.6,0,3.1-.5,4.3-1.6,1.2-1.1,1.9-2.3,1.9-3.8v-5.1h-3c-1.2,0-2.5.2-3.9.5-1.3.3-2.4.9-3.4,1.7-.9.8-1.4,1.9-1.4,3.2s.5,2.8,1.6,3.7,2.3,1.3,3.8,1.3Z"/>
    <path class="cls-2" d="M765.7,520c-3.1,0-5.5-.3-7.3-1-1.8-.7-3.1-1.6-3.9-2.7s-1.3-2.4-1.5-3.8-.3-2.7-.3-4.1v-42.7h12v41.2c0,1.1.3,2.1.8,2.9s1.7,1.4,3.4,1.6h1.6v7.6c-.8.3-1.6.5-2.4.7s-1.6.3-2.4.3Z"/>
    <path class="cls-2" d="M782,531.2c-2.7,0-5.2-.5-7.5-1.4v-7.8l3.6.2c2.3.2,4,0,5-.4s1.7-1,2.1-1.6c.3-.6.5-1,.6-1.3l.4-1.4-14.5-35.4h12.1l8,22.3,8.2-22.3h12l-14.8,36.3c-1.5,3.5-3,6.2-4.6,8.1-1.6,1.9-3.2,3.1-5,3.8-1.8.7-3.7,1-5.7,1Z"/>
    <path class="cls-2" d="M831.3,520c-2.6,0-5.1-.4-7.6-1.3-2.5-.9-4.6-2.2-6.3-4.1s-2.9-4.4-3.4-7.4h10.5c.3,1.3.9,2.2,1.7,2.9s1.7,1.1,2.6,1.4c.9.3,1.8.4,2.5.4,1.8,0,3.2-.3,4.3-.8,1.1-.5,1.7-1.3,1.7-2.3s-.3-1.5-1-2c-.7-.5-1.9-.9-3.6-1.2l-6-1.1c-3.4-.6-6.2-1.8-8.3-3.6-2.1-1.7-3.2-4.2-3.2-7.4,0-2.3.6-4.3,1.8-6.2,1.3-1.8,3.1-3.3,5.5-4.3,2.4-1.1,5.4-1.6,8.9-1.6s8.7,1.1,11.6,3.2c2.9,2.1,4.3,5,4.3,8.7h-10.1c-.3-1.3-.9-2.2-2-2.9s-2.4-1-3.9-1-2.8.3-3.9.8c-1,.5-1.6,1.3-1.6,2.3s.5,1.4,1.4,1.9c.9.5,2.4.9,4.4,1.3l5.4,1.1c3,.7,5.2,1.8,6.8,3.1s2.6,2.8,3.1,4.3c.5,1.5.8,2.8.8,3.9,0,2.6-.7,4.7-2.1,6.5s-3.3,3.1-5.8,4.1c-2.5.9-5.3,1.4-8.4,1.4Z"/>
    <path class="cls-2" d="M854.2,477.8v-10.7h11.8v10.7h-11.8ZM854.3,519.3v-37.3h11.7v37.3h-11.7Z"/>
    <path class="cls-2" d="M889.9,520c-2.6,0-5.1-.4-7.6-1.3s-4.6-2.2-6.3-4.1c-1.8-1.9-2.9-4.4-3.4-7.4h10.5c.3,1.3.9,2.2,1.7,2.9.8.7,1.7,1.1,2.6,1.4s1.8.4,2.5.4c1.8,0,3.2-.3,4.3-.8,1.1-.5,1.7-1.3,1.7-2.3s-.3-1.5-1-2-1.9-.9-3.6-1.2l-6-1.1c-3.4-.6-6.2-1.8-8.3-3.6-2.1-1.7-3.2-4.2-3.2-7.4,0-2.3.6-4.3,1.8-6.2s3.1-3.3,5.5-4.3c2.4-1.1,5.4-1.6,8.9-1.6s8.7,1.1,11.6,3.2c2.9,2.1,4.3,5,4.3,8.7h-10.1c-.3-1.3-.9-2.2-2-2.9-1.1-.7-2.4-1-3.9-1s-2.8.3-3.9.8c-1,.5-1.6,1.3-1.6,2.3s.5,1.4,1.4,1.9,2.4.9,4.4,1.3l5.4,1.1c3,.7,5.2,1.8,6.8,3.1s2.6,2.8,3.1,4.3c.5,1.5.8,2.8.8,3.9,0,2.6-.7,4.7-2.1,6.5-1.4,1.8-3.3,3.1-5.8,4.1-2.5.9-5.3,1.4-8.4,1.4Z"/>
    <path class="cls-2" d="M939.3,520c-2.4,0-4.5-.5-6.5-1.4-1.9-.9-3.5-2.2-4.6-3.9-1.1-1.7-1.7-3.8-1.7-6.3,0-4.1,1.6-7.2,4.7-9.4,3.1-2.2,8-3.3,14.7-3.3h3.8v-1.9c0-3-1.7-4.4-5.1-4.4-1.3,0-2.5.4-3.8.9-1.3.6-2.2,1.6-2.7,3.1h-10.1c.1-2.8.9-5.1,2.5-6.9s3.6-3.1,6.1-3.9c2.5-.8,5.4-1.3,8.5-1.3s7.3.5,9.7,1.4c2.4,1,4.1,2.3,5.1,4.1s1.5,3.8,1.5,6.2v26.3h-10.2l-1-6.2c-1.2,2.6-2.7,4.4-4.5,5.4-1.8,1-3.9,1.5-6.5,1.5ZM943.5,512.1c1.6,0,3.1-.5,4.3-1.6,1.2-1.1,1.9-2.3,1.9-3.8v-5.1h-3c-1.2,0-2.5.2-3.9.5-1.3.3-2.4.9-3.4,1.7-.9.8-1.4,1.9-1.4,3.2s.5,2.8,1.6,3.7,2.3,1.3,3.8,1.3Z"/>
    <path class="cls-2" d="M969.3,519.3v-37.3h12.1v5.2c.8-1.3,2-2.5,3.6-3.7s3.9-1.8,6.8-1.8,4.3.4,6.3,1.3,3.6,2.2,4.9,4.1c1.3,1.9,1.9,4.4,1.9,7.4v24.7h-12.3v-23.1c0-1.6-.5-2.9-1.6-3.7-1.1-.8-2.3-1.2-3.6-1.2s-2.7.4-3.9,1.2-1.8,1.9-1.8,3.5v23.4h-12.3Z"/>
    <path class="cls-2" d="M1026.9,520c-5.1,0-9-1.8-11.8-5.3-2.8-3.5-4.2-8.3-4.2-14.3s1.3-10.5,3.8-14c2.5-3.5,6.2-5.2,10.9-5.2s4.4.5,6.3,1.4c1.9.9,3.4,2.2,4.4,4v-21h12.3v53.6h-8.8l-1.4-7.6c-.8,2.3-2.1,4.3-3.9,5.9-1.8,1.6-4.4,2.4-7.7,2.4ZM1029.7,511.3c2.1,0,3.8-.8,4.9-2.5,1.2-1.6,1.7-4.5,1.7-8.5s-.6-6.2-1.7-7.8c-1.1-1.6-2.8-2.5-4.9-2.5s-3.6.8-4.9,2.3-2,4.2-2,8,.6,6.7,1.9,8.4,2.9,2.6,4.9,2.6Z"/>
    <path class="cls-2" d="M1073.8,519.3v-52.2h19.9c3.8,0,7.2.7,10.3,2s5.5,3.3,7.2,5.9c1.8,2.6,2.7,5.7,2.7,9.5s-1.7,9.2-5,12.1c-3.4,2.9-7.9,4.4-13.5,4.4h-9.2v18.3h-12.3ZM1086,491.7h8.9c2.2,0,4-.8,5.4-2.3,1.4-1.6,2.1-3.4,2.1-5.5s-.8-4-2.3-5.4c-1.5-1.4-3.3-2.1-5.4-2.1h-8.8v15.3Z"/>
    <path class="cls-2" d="M1133.7,520c-2.1,0-4.3-.5-6.5-1.4-2.2-.9-4-2.3-5.5-4.1-1.5-1.8-2.2-4-2.2-6.5v-26h12.3v24.4c0,1.4.5,2.6,1.4,3.5,1,.9,2.3,1.4,4.1,1.4s3.1-.5,4.1-1.4c1-.9,1.5-2.1,1.5-3.6v-24.3h12.2v37.3h-9.2l-1.4-7.5c-.5,2.3-1.3,4.1-2.5,5.3-1.2,1.2-2.6,2-4.1,2.4-1.5.4-3,.6-4.3.6Z"/>
    <path class="cls-2" d="M1185.4,520c-3.3,0-5.9-.8-7.7-2.4-1.8-1.6-3.1-3.6-3.8-5.9l-1.4,7.6h-8.8v-53.6h12.3v21c1-1.8,2.5-3.1,4.5-4,1.9-.9,4.1-1.4,6.3-1.4,4.6,0,8.2,1.7,10.8,5.1,2.6,3.4,3.9,8.1,3.9,14.1s-1.4,10.7-4.1,14.2c-2.7,3.6-6.7,5.4-11.9,5.4ZM1182.5,511.3c1.9,0,3.6-.8,4.9-2.5,1.3-1.6,2-4.5,2-8.5s-.6-6.3-1.9-7.9-2.9-2.4-5-2.4-3.7.8-4.9,2.5c-1.1,1.6-1.7,4.3-1.7,7.8,0,4,.6,6.9,1.7,8.5,1.2,1.6,2.8,2.5,4.9,2.5Z"/>
    <path class="cls-2" d="M1220.8,520c-3.1,0-5.5-.3-7.3-1-1.8-.7-3.1-1.6-3.9-2.7s-1.3-2.4-1.5-3.8-.3-2.7-.3-4.1v-42.7h12v41.2c0,1.1.3,2.1.8,2.9s1.7,1.4,3.4,1.6h1.6v7.6c-.8.3-1.6.5-2.4.7s-1.6.3-2.4.3Z"/>
    <path class="cls-2" d="M1232,477.8v-10.7h11.8v10.7h-11.8ZM1232.1,519.3v-37.3h11.7v37.3h-11.7Z"/>
    <path class="cls-2" d="M1267.7,520c-2.6,0-5.1-.4-7.6-1.3-2.5-.9-4.6-2.2-6.3-4.1-1.8-1.9-2.9-4.4-3.4-7.4h10.5c.3,1.3.9,2.2,1.7,2.9.8.7,1.7,1.1,2.6,1.4s1.8.4,2.5.4c1.8,0,3.2-.3,4.3-.8,1.1-.5,1.7-1.3,1.7-2.3s-.3-1.5-1-2c-.7-.5-1.9-.9-3.6-1.2l-6-1.1c-3.4-.6-6.2-1.8-8.3-3.6-2.1-1.7-3.1-4.2-3.2-7.4,0-2.3.6-4.3,1.8-6.2,1.3-1.8,3.1-3.3,5.5-4.3,2.4-1.1,5.4-1.6,8.9-1.6s8.7,1.1,11.6,3.2c2.9,2.1,4.3,5,4.3,8.7h-10.1c-.3-1.3-.9-2.2-2-2.9-1.1-.7-2.4-1-3.9-1s-2.8.3-3.9.8c-1,.5-1.6,1.3-1.6,2.3s.5,1.4,1.4,1.9,2.4.9,4.4,1.3l5.4,1.1c3,.7,5.2,1.8,6.8,3.1,1.5,1.4,2.6,2.8,3.1,4.3.5,1.5.8,2.8.8,3.9,0,2.6-.7,4.7-2.1,6.5s-3.3,3.1-5.8,4.1c-2.5.9-5.3,1.4-8.4,1.4Z"/>
    <path class="cls-2" d="M1290.6,519.3v-53.6h12.2v21.6c.6-.8,1.3-1.6,2.1-2.4s1.9-1.6,3.2-2.1c1.3-.6,2.9-.9,4.9-.9s4.5.5,6.5,1.4,3.6,2.3,4.8,4.1c1.2,1.8,1.8,4,1.8,6.6v25.2h-12.3v-23.6c0-1.5-.5-2.6-1.6-3.3-1.1-.8-2.3-1.1-3.7-1.1s-2.7.4-3.8,1.2c-1.2.8-1.8,2-1.8,3.5v23.3h-12.3Z"/>
    <path class="cls-2" d="M1333.9,477.8v-10.7h11.8v10.7h-11.8ZM1333.9,519.3v-37.3h11.7v37.3h-11.7Z"/>
    <path class="cls-2" d="M1353.9,519.3v-37.3h12.1v5.2c.8-1.3,2-2.5,3.6-3.7,1.6-1.2,3.9-1.8,6.8-1.8s4.3.4,6.3,1.3c2,.9,3.6,2.2,4.9,4.1,1.3,1.9,1.9,4.4,1.9,7.4v24.7h-12.3v-23.1c0-1.6-.5-2.9-1.6-3.7-1.1-.8-2.3-1.2-3.6-1.2s-2.7.4-3.9,1.2-1.8,1.9-1.8,3.5v23.4h-12.3Z"/>
    <path class="cls-2" d="M1415.2,531.6c-7,0-12.3-.8-15.8-2.5-3.5-1.7-5.3-3.8-5.3-6.3s.3-2.3,1-3.1,1.5-1.5,2.4-1.9c.9-.5,1.8-.8,2.5-1.1.8-.2,1.2-.4,1.4-.5-.4-.2-1-.5-1.8-.9s-1.5-1-2.2-1.8c-.7-.8-1-1.8-1-3.1s.7-2.7,2-3.9c1.3-1.2,3.4-2,6.1-2.4-2.6-1.2-4.5-2.8-5.8-4.8s-1.9-4.1-1.9-6.1.8-4.6,2.5-6.3c1.6-1.7,3.8-3.1,6.6-4s5.9-1.4,9.3-1.4,4.7.3,6.3.8c1.6.5,3.2,1.2,4.5,2,.8-.3,1.9-.8,3.3-1.3s2.8-1.1,4.3-1.7c1.5-.6,2.8-1.1,4-1.6v9.1c0,0-6.5.9-6.5.9.2.6.3,1.2.4,1.9.1.7.2,1.2.2,1.5,0,2.1-.7,4.1-2,6.1-1.3,1.9-3.3,3.5-5.9,4.7-2.6,1.2-5.8,1.8-9.6,1.8s-1.2,0-2.1,0c-.9,0-1.6,0-2.2-.1-.9,0-1.5.2-1.8.4s-.5.4-.5.7c0,.6.5.9,1.6,1,1.1.1,2.6.3,4.6.4.7,0,1.8,0,3.1.2s2.9.2,4.5.3c4.9.3,8.4,1.5,10.7,3.5,2.3,2,3.5,4.5,3.5,7.4s-1.7,6.5-5.1,8.8-8.6,3.5-15.5,3.5ZM1417.1,525c2.7,0,4.5-.3,5.5-.8,1-.6,1.5-1.4,1.5-2.4,0-2-1.7-3.2-5.2-3.4l-7.6-.5c-1.8,0-3.2.2-4,1s-1.2,1.6-1.2,2.5c0,1.4.9,2.3,2.7,2.9s4.6.8,8.4.8ZM1414.8,499c1.6,0,3-.5,4-1.5,1-1,1.5-2.3,1.5-4s-.5-3-1.5-4.2-2.4-1.7-4-1.7-3,.6-4.1,1.7-1.5,2.5-1.5,4.2.5,3,1.5,4,2.4,1.5,4.1,1.5Z"/>
    <path class="cls-2" d="M1470.9,519.3v-41.3h-15.3v-10.9h42.7v10.9h-15.1v41.3h-12.3Z"/>
    <path class="cls-2" d="M1514.8,520c-3.8,0-7-.8-9.8-2.4-2.8-1.6-4.9-3.8-6.4-6.7-1.5-2.9-2.3-6.2-2.3-10.1s.8-7.3,2.3-10.3c1.6-2.9,3.7-5.2,6.5-6.9s6-2.5,9.7-2.5,7,.8,9.8,2.5c2.8,1.6,4.9,3.9,6.4,6.9,1.5,2.9,2.3,6.4,2.3,10.2s-.7,7-2.2,9.9c-1.5,2.9-3.6,5.1-6.4,6.8s-6.1,2.5-9.9,2.5ZM1514.8,511c1.7,0,3-.5,3.9-1.6s1.6-2.4,2-4,.6-3.3.6-5-.2-3.3-.5-4.9-1-2.9-1.9-3.9c-.9-1-2.3-1.6-4-1.6s-3,.5-4,1.5c-.9,1-1.6,2.3-2,3.9-.4,1.6-.6,3.2-.6,5s.2,3.3.5,4.9c.4,1.6,1,3,2,4,.9,1.1,2.3,1.6,4.1,1.6Z"/>
    <path class="cls-2" d="M1556.6,520c-3.8,0-7-.8-9.8-2.4-2.8-1.6-4.9-3.8-6.4-6.7-1.5-2.9-2.3-6.2-2.3-10.1s.8-7.3,2.3-10.3c1.6-2.9,3.7-5.2,6.5-6.9,2.8-1.6,6-2.5,9.7-2.5s7,.8,9.8,2.5c2.8,1.6,4.9,3.9,6.4,6.9,1.5,2.9,2.3,6.4,2.3,10.2s-.7,7-2.2,9.9c-1.5,2.9-3.6,5.1-6.4,6.8s-6.1,2.5-9.9,2.5ZM1556.7,511c1.7,0,3-.5,3.9-1.6.9-1,1.6-2.4,2-4,.4-1.6.6-3.3.6-5s-.2-3.3-.5-4.9-1-2.9-1.9-3.9c-.9-1-2.3-1.6-4-1.6s-3,.5-4,1.5c-1,1-1.6,2.3-2,3.9-.4,1.6-.6,3.2-.6,5s.2,3.3.5,4.9,1,3,2,4c1,1.1,2.3,1.6,4.1,1.6Z"/>
    <path class="cls-2" d="M1594.7,520c-3.1,0-5.5-.3-7.3-1-1.8-.7-3.1-1.6-3.9-2.7s-1.3-2.4-1.5-3.8-.3-2.7-.3-4.1v-42.7h12v41.2c0,1.1.3,2.1.8,2.9s1.7,1.4,3.4,1.6h1.6v7.6c-.8.3-1.6.5-2.4.7s-1.6.3-2.4.3Z"/>
  </g>
</svg>