<svg width="42" height="12" viewBox="0 0 42 12" fill="none" xmlns="http://www.w3.org/2000/svg">
<rect width="42" height="12" fill="#3E4DED"/>
<path d="M5.30078 2.78571L3.13656 11H1L4.14607 1H5.48055L5.30078 2.78571ZM7.00864 11L4.8306 2.78571L4.63008 1H5.98531L9.15903 11H7.00864ZM7.0847 7.2706V8.93956H2.54192V7.2706H7.0847Z" fill="white"/>
<path d="M12.7476 11H10.9706L10.9844 9.33791H12.7476C13.2362 9.33791 13.6165 9.25092 13.8885 9.07692C14.1605 8.90293 14.3518 8.62821 14.4624 8.25275C14.5776 7.87729 14.6353 7.38507 14.6353 6.7761V5.21703C14.6353 4.75458 14.6053 4.3631 14.5454 4.04258C14.4855 3.71749 14.384 3.4565 14.2411 3.25962C14.0982 3.05815 13.9069 2.90934 13.6672 2.81319C13.4275 2.71703 13.1302 2.66896 12.7753 2.66896H10.936V1H12.7753C13.3561 1 13.8839 1.09386 14.3587 1.28159C14.8335 1.46932 15.2414 1.74405 15.5825 2.10577C15.9237 2.46291 16.1864 2.90476 16.3708 3.43132C16.5552 3.95788 16.6474 4.55769 16.6474 5.23077V6.7761C16.6474 7.45375 16.5552 8.05357 16.3708 8.57555C16.1864 9.09753 15.9237 9.53938 15.5825 9.9011C15.246 10.2582 14.8381 10.5307 14.3587 10.7184C13.8793 10.9061 13.3423 11 12.7476 11ZM12.1461 1V11H10.1201V1H12.1461Z" fill="white"/>
<path d="M21.6188 2.78571L19.4546 11H17.3181L20.4641 1H21.7986L21.6188 2.78571ZM23.3267 11L21.1487 2.78571L20.9481 1H22.3034L25.4771 11H23.3267ZM23.4028 7.2706V8.93956H18.86V7.2706H23.4028Z" fill="white"/>
<path d="M29.8678 7.47665H27.8073V5.80769H29.8678C30.1536 5.80769 30.3863 5.74359 30.5661 5.61538C30.7505 5.48718 30.8842 5.3109 30.9672 5.08654C31.0501 4.8576 31.0916 4.60119 31.0916 4.31731C31.0916 4.02885 31.0478 3.76099 30.9602 3.51374C30.8773 3.2619 30.7459 3.05815 30.5661 2.90247C30.391 2.74679 30.1582 2.66896 29.8678 2.66896H28.4572V11H26.4382V1H29.8678C30.5454 1 31.1285 1.14194 31.6171 1.42582C32.1057 1.70971 32.4791 2.10119 32.7373 2.60027C33 3.09478 33.1314 3.66255 33.1314 4.30357C33.1314 4.94918 33 5.51007 32.7373 5.98626C32.4791 6.45788 32.1057 6.82418 31.6171 7.08517C31.1285 7.34615 30.5454 7.47665 29.8678 7.47665Z" fill="white"/>
<path d="M38.497 1V11H36.4849V1H38.497ZM41 1V2.66896H34.0303V1H41Z" fill="white"/>
</svg>
