<svg width="65px" height="42px" viewBox="0 0 65 42" fill="none" xmlns="http://www.w3.org/2000/svg">
  <path d="M64.7876929,19.9462 C64.5339071,19.8064143 51.9504786,15.6291286 39.8922643,8.25441429 C27.83405,0.8797 27.7946929,0.425057143 27.0998357,0.416914286 C26.5529071,0.441342857 17.4166214,7.23384286 13.2393357,10.0648429 C9.06340714,12.8958429 5.41947857,15.4255571 2.42426429,16.6429143 C0.514764286,17.4205571 0.0954071429,17.3133429 0.0289071429,17.8236286 C-0.0375928571,18.3298429 -0.159735714,20.1307714 1.81897857,19.6761286 C2.60340714,19.4956286 6.77255,18.5917714 7.42669286,18.3990571 C8.37669286,18.0665571 8.74447857,18.2674143 8.88562143,18.4262 C9.48955,19.1020571 9.95233571,22.4026286 9.97812143,23.4435571 C9.97812143,23.4435571 10.0934786,28.4962 10.0242643,30.2523429 C9.97133571,31.6352714 9.56012143,36.1532 9.56012143,36.1532 C9.56012143,36.1532 9.44747857,36.9077714 9.85462143,37.1371286 C10.2617643,37.3651286 11.4723357,37.6569143 11.8672643,37.4859143 C12.2649071,37.3162714 12.46305,36.9932714 12.4806929,36.4314143 C12.50105,35.8641286 12.63405,23.8547714 12.7019071,23.3729857 C12.7711214,22.8884857 12.6774786,22.2519857 13.3234786,22.5546286 C13.97355,22.8586286 14.5096214,23.2128429 14.8746929,23.5548429 C15.2356929,23.8995571 15.4338357,24.9703429 15.4881214,25.6204143 C15.5437643,26.2718429 16.0092643,35.6198429 15.7473357,38.7480571 C15.7229071,39.0466286 15.8979786,39.4917714 16.3349786,39.6899143 C17.3094071,40.1486286 18.1196214,40.3494857 18.5199786,40.4390571 C18.94205,40.5313429 19.4102643,40.8122714 19.4482643,39.1307714 C19.4821929,37.4492714 17.7151929,12.8795571 17.8549786,11.8671286 C17.9336929,11.3174857 18.2268357,10.7054143 18.6204071,10.4054857 C19.0126214,10.1096286 25.6843357,5.06784286 25.9639071,4.83984286 C26.2407643,4.61591429 26.7741214,4.45034286 27.53955,4.88734286 C28.6781929,5.5822 32.1456929,7.38312857 33.1499786,7.94905714 C34.1529071,8.51362857 35.7516214,9.53555714 36.2116929,9.80155714 C36.6717643,10.0689143 37.8918357,11.1207 37.8538357,13.1129857 C37.7629071,15.7553429 36.8563357,36.4341286 36.8563357,36.4341286 C36.8563357,36.4341286 36.5944071,39.9179143 36.56455,40.6100571 C36.5346929,41.3008429 36.4668357,41.7704143 37.4833357,41.9441286 C38.0791214,42.0499857 38.7916214,42.1449857 39.2489786,41.9889143 C39.8461214,41.7568429 39.8664786,41.4976286 39.9384071,40.8421286 C40.0116929,40.1798429 41.2507643,26.6342 41.3172643,25.9922714 C41.3796929,25.3503429 41.2982643,24.6799143 42.1966929,24.9092714 C42.9268357,25.1304857 43.3719786,24.8970571 43.3258357,26.1795571 C43.2769786,27.4620571 43.2647643,36.1898429 43.3556929,36.6689143 C43.4479786,37.1466286 43.6298357,37.9432714 44.2799071,38.1658429 C44.9259071,38.3884143 46.30205,38.8349143 46.30205,38.8349143 C46.30205,38.8349143 47.0308357,39.1375571 46.9996214,37.9364857 C46.96705,36.7367714 46.0672643,17.5427 46.0672643,17.5427 C46.0672643,17.5427 46.0374071,16.2615571 46.9236214,16.5574143 C47.2534071,16.6687 49.4899786,17.3689857 52.4146214,18.2416286 C52.6439786,18.3027 52.8991214,18.5103429 52.8746929,18.8034857 C52.7878357,19.7507714 51.8324071,30.1478429 51.5528357,33.2489143 C51.44155,34.4784857 51.3451929,35.4637714 51.7496214,35.5913429 C51.9613357,35.6619143 52.8149786,35.8369857 53.1121929,35.8967 C53.5926214,35.9903429 53.6387643,35.3131286 53.7066214,34.7390571 C53.95905,32.6042714 54.5249786,29.0214143 54.9728357,27.7348429 C55.1492643,27.2218429 55.2537643,27.0671286 55.4641214,27.1092 C55.6717643,27.1526286 56.22955,27.4199857 56.4263357,27.5339857 C56.6841929,27.6873429 56.6841929,27.9533429 56.7696929,28.4256286 C57.01805,29.8289143 57.0153357,32.0804143 57.03705,32.9869857 C57.04655,33.3222 57.0723357,33.7157714 57.2609786,33.8759143 C57.5744786,34.1446286 58.3222643,34.2382714 58.6629071,34.3047714 C58.9926929,34.3672 59.2424071,34.0347 59.2478357,33.4714857 C59.2749786,30.2971286 59.0456214,23.2779857 60.1218357,20.8310571 C60.1747643,20.6342714 60.4461929,20.5935571 60.56155,20.6234143 C62.7004071,21.2069857 64.1213357,21.6724857 64.2312643,21.6819857 C64.9139071,21.7308429 64.9627643,20.7224857 64.9817643,20.5094143 C65.0048357,20.2963429 64.9329071,20.0249143 64.7876929,19.9462" id="Fill-31" fill="#001489" mask="url(#mask-4)"></path>
  <path d="M31.2991071,17.8693643 C30.7671071,17.77165 28.9200357,17.5273643 28.9200357,17.5273643 L28.7680357,17.5219357 C28.3188214,17.48665 28.3011786,17.9032929 28.3188214,18.5397929 C28.3364643,19.1722214 28.3866786,19.7652929 28.3391786,20.5157929 C28.2930357,21.2703643 28.47625,21.4970071 28.6906786,21.5594357 C28.9363214,21.6367929 29.3801071,21.6680071 30.1821786,21.6680071 C30.7779643,21.6680071 30.98425,21.4807214 31.05075,21.3205786 C31.22175,20.9867214 31.6560357,19.3187929 31.7428929,18.4990786 L31.7428929,18.49365 C31.7958214,18.2167929 31.6560357,17.9372214 31.2991071,17.8693643" id="Fill-34" fill="#001489"></path>
  <path d="M30.2773143,27.3733 C30.2718857,27.2280857 30.2759571,27.0163714 30.2759571,27.0163714 C28.4207429,24.0917286 26.1421,26.5943 26.1421,26.5943 C26.1421,26.5943 26.0579571,27.0543714 26.0294571,27.3733 C25.9792429,28.0342286 25.5693857,36.9764429 25.5178143,39.2442286 C25.4703143,41.5038714 26.0036714,41.5988714 26.7161714,41.6273714 C27.4259571,41.6572286 28.9812429,41.7305143 29.8511714,41.6775857 C30.3899571,41.6436571 30.5786,41.5391571 30.4795286,40.5633714 C30.3546714,39.2374429 30.2773143,27.3733 30.2773143,27.3733" id="Fill-36" fill="#001489"></path>
  <path d="M45.2601714,4.90498571 C45.2764571,5.48855714 44.9548143,6.28384286 44.8720286,6.49827143 C44.7811,6.71541429 44.6399571,7.10762857 43.6994571,6.73305714 C42.7589571,6.3612 41.7872429,5.90927143 41.6610286,5.83055714 C41.5388857,5.75184286 40.6988143,5.12891429 40.7544571,4.4042 C40.8209571,3.51527143 41.6271,3.17191429 41.7736714,2.88962857 C41.9202429,2.61141429 42.3979571,2.64805714 42.8634571,2.87334286 C43.3276,3.09591429 44.4472429,3.81384286 44.6304571,3.9197 C44.8191,4.02827143 45.2452429,4.32548571 45.2601714,4.90498571" id="Fill-38" fill="#001489"></path>
  <path d="M12.6199357,2.76585714 C12.6199357,2.76585714 10.0264357,4.10264286 9.09000714,4.47314286 C8.74529286,4.60885714 7.67179286,5.14357143 7.73557857,5.74614286 C7.80207857,6.38264286 7.94865,7.02864286 8.45486429,7.70721429 C8.75886429,8.11435714 9.68850714,7.94064286 10.02915,7.70042857 C10.6005071,7.28785714 13.3487214,5.871 13.6255786,5.624 C13.9037929,5.377 14.0937929,5.10557143 13.9187214,4.35914286 C13.7477214,3.62221429 13.18315,2.44964286 12.6199357,2.76585714" id="Fill-40" fill="#001489"></path>
  <path d="M56.0736143,13.6680571 C56.7236857,14.1959857 57.8786143,15.0577714 58.4567571,14.8107714 C59.3144714,14.4389143 59.5207571,13.0234143 59.0783286,12.5823429 C58.4513286,11.9567 56.9788286,11.1234143 56.0939714,12.0082714 C55.2077571,12.8931286 56.0315429,13.6287 56.0315429,13.6287 L56.0736143,13.6680571 Z" id="Fill-42" fill="#001489"></path>
</svg>
