<svg viewBox="0 0 462 239" fill="none" xmlns="http://www.w3.org/2000/svg">
<path d="M369.867 140.784C369.043 140.785 368.228 140.61 367.477 140.27C366.727 139.929 366.057 139.432 365.515 138.812C324.731 92.2551 294.152 68.6138 269.618 51.6288C251.83 39.3136 236.281 34.4066 223.406 37.0425C212.935 39.186 206.397 45.9078 202.757 51.1702C198.877 56.777 196.779 63.9463 196.847 71.3581C196.877 74.5517 194.312 77.1649 191.119 77.1944H191.064C187.894 77.1944 185.312 74.641 185.282 71.4653C185.191 61.6874 188.019 52.1425 193.245 44.5887C197.212 38.8544 206.106 28.7784 221.086 25.7112C237.174 22.4179 255.718 27.9388 276.201 42.1199C301.317 59.5073 332.601 83.6866 374.215 131.191C376.319 133.593 376.078 137.247 373.675 139.351C372.622 140.276 371.268 140.785 369.867 140.784" fill="var(--usa-ink)"/>
<path d="M91.7544 140.784C90.3531 140.785 88.9992 140.276 87.9462 139.351C85.5441 137.247 85.3023 133.593 87.407 131.191C129.02 83.6866 160.305 59.5073 185.42 42.1199C205.904 27.9388 224.447 22.4179 240.535 25.7112C255.517 28.7784 264.409 38.8549 268.376 44.5893C273.603 52.1419 276.43 61.6874 276.34 71.4653C276.31 74.641 273.727 77.1939 270.558 77.1939H270.504C267.309 77.1649 264.745 74.5517 264.774 71.3581C264.843 63.9463 262.745 56.777 258.865 51.1702C255.224 45.9078 248.686 39.1854 238.216 37.0425C225.34 34.4061 209.791 39.3142 192.003 51.6288C167.47 68.6144 136.89 92.2545 96.1065 138.812C95.5641 139.432 94.895 139.929 94.1443 140.27C93.3936 140.61 92.5787 140.785 91.7544 140.784Z" fill="var(--usa-ink)"/>
<path d="M91.7544 6.29975e-06C90.3531 -0.00129241 88.9992 0.508049 87.9462 1.43273C85.5441 3.53744 85.3023 7.19083 87.407 9.59357C129.02 57.0976 160.305 81.2769 185.42 98.6643C205.904 112.845 224.447 118.366 240.535 115.073C255.517 112.006 264.409 101.929 268.376 96.1949C273.603 88.6423 276.43 79.0968 276.34 69.3188C276.31 66.1432 273.727 63.5903 270.558 63.5903H270.504C267.309 63.6193 264.745 66.2325 264.774 69.4261C264.843 76.8378 262.745 84.0072 258.865 89.614C255.224 94.8764 248.686 101.599 238.216 103.742C225.34 106.378 209.791 101.47 192.003 89.1554C167.47 72.1698 136.89 48.5297 96.1065 1.97253C95.5641 1.35191 94.895 0.854728 94.1443 0.514473C93.3936 0.174218 92.5787 -0.00121176 91.7544 6.29975e-06Z" fill="var(--usa-ink)"/>
<path d="M230.347 116.103C227.167 116.103 224.07 115.795 221.06 115.178C206.079 112.111 197.186 102.034 193.219 96.3008C187.993 88.7476 185.165 79.2022 185.256 69.4248C185.285 66.2492 187.869 63.6956 191.037 63.6956H191.092C194.286 63.7246 196.851 66.3384 196.821 69.532C196.752 76.9438 198.85 84.1131 202.73 89.7199C206.371 94.9817 212.909 101.704 223.379 103.848C236.255 106.483 251.803 101.576 269.592 89.2613C294.126 72.2751 324.706 48.635 365.49 2.07843C367.594 -0.323728 371.247 -0.565505 373.65 1.53921C376.052 3.64335 376.294 7.29673 374.189 9.69947C332.576 57.2035 301.291 81.3828 276.176 98.7702C259.525 110.297 244.156 116.103 230.347 116.103Z" fill="var(--usa-ink)"/>
<path d="M5.54446 181.815H10.6309C12.1168 181.815 13.2946 181.417 14.1646 180.624C15.0342 179.83 15.4694 178.799 15.4694 177.528C15.4694 176.271 15.0506 175.271 14.2123 174.528C13.374 173.785 12.3133 173.414 11.0307 173.414H5.54446V181.815ZM0 196.712V169.164H11.6217C13.8188 169.164 15.6156 169.514 17.0126 170.213C18.4096 170.911 19.438 171.88 20.0988 173.118C20.7587 174.357 21.0891 175.782 21.0891 177.395C21.0891 178.843 20.8667 180.065 20.4229 181.062C19.9781 182.059 19.3876 182.888 18.651 183.548C17.9305 184.198 17.1225 184.743 16.2506 185.168L21.3751 196.712H15.6029L11.126 186.101H5.54446V196.712H0ZM26.5187 196.712V169.164H32.0626V180.215H44.1207V169.165H49.6842V196.712H44.1212V184.882H32.0626V196.712H26.5187ZM67.3048 192.521C69.3118 192.521 70.9084 191.787 72.0957 190.321C73.2835 188.854 73.8771 186.438 73.8771 183.072C73.8771 179.63 73.2798 177.15 72.0861 175.633C70.8925 174.115 69.2985 173.356 67.3048 173.356C65.2977 173.356 63.6948 174.118 62.4948 175.642C61.2943 177.166 60.6943 179.642 60.6943 183.072C60.6943 186.438 61.2943 188.853 62.4948 190.32C63.6948 191.787 65.2977 192.521 67.3048 192.521ZM67.3048 197.093C64.7009 197.093 62.4498 196.528 60.5513 195.397C58.6528 194.267 57.186 192.648 56.1507 190.54C55.1154 188.432 54.598 185.917 54.598 182.996C54.598 180.062 55.1222 177.531 56.1697 175.404C57.2182 173.278 58.6941 171.641 60.5989 170.499C62.5043 169.355 64.739 168.784 67.3048 168.784C69.8572 168.784 72.0798 169.356 73.9724 170.499C75.8645 171.641 77.3282 173.277 78.3635 175.404C79.3983 177.531 79.9156 180.062 79.9156 182.996C79.9156 185.904 79.4046 188.413 78.3826 190.521C77.3605 192.629 75.9026 194.251 74.0105 195.388C72.1179 196.525 69.8826 197.093 67.3048 197.093ZM84.831 196.712V169.164H90.3363L102.91 187.397V169.165H108.473V196.712H103.462L90.375 177.757V196.712H84.831ZM120.227 192.216H122.779C124.354 192.216 125.786 191.911 127.075 191.302C128.364 190.692 129.396 189.695 130.171 188.311C130.945 186.927 131.333 185.079 131.333 182.767C131.333 179.554 130.574 177.233 129.057 175.804C127.539 174.375 125.471 173.661 122.855 173.661H120.227V192.216ZM114.626 196.712V169.164H118.065C118.934 169.164 119.804 169.169 120.674 169.175C121.544 169.181 122.271 169.19 122.855 169.203C126.195 169.279 128.917 169.877 131.019 170.994C133.12 172.111 134.667 173.674 135.657 175.68C136.648 177.687 137.143 180.062 137.143 182.805C137.143 185.663 136.622 188.13 135.581 190.206C134.54 192.282 132.949 193.886 130.809 195.016C128.669 196.147 125.954 196.712 122.665 196.712H114.626ZM147.925 185.472H155.241L151.602 174.518L147.925 185.472ZM138.8 196.712L148.649 169.165H154.536L164.385 196.712H158.841L156.593 190.33H146.668L144.382 196.712H138.8ZM182.253 196.712L174.138 169.164H179.586L184.711 187.359L189.836 169.165H193.855L199.037 187.359L204.161 169.165H209.591L201.456 196.712H197.017L191.836 178.709L186.616 196.712H182.253ZM213.4 196.712V169.164H232.317L232.299 173.851H218.982V180.538H230.546V185.13H218.944V191.968L232.508 191.988V196.712L213.4 196.712ZM237.689 196.712H243.232V169.165H237.689V196.712ZM259.73 197.093C257.931 197.098 256.145 196.789 254.453 196.178C252.763 195.569 251.351 194.655 250.214 193.435C249.077 192.216 248.414 190.686 248.223 188.844H253.92C254.199 190.088 254.875 191.047 255.948 191.72C257.022 192.394 258.39 192.73 260.053 192.73C260.917 192.73 261.746 192.603 262.54 192.349C263.333 192.095 263.978 191.708 264.474 191.187C264.969 190.667 265.216 190.013 265.216 189.225C265.216 188.286 264.873 187.577 264.188 187.101C263.502 186.625 262.568 186.247 261.387 185.967L256.225 184.844C254.015 184.386 252.262 183.545 250.967 182.32C249.671 181.094 249.024 179.364 249.024 177.128C249.024 175.414 249.497 173.937 250.443 172.699C251.389 171.46 252.678 170.505 254.31 169.832C255.942 169.159 257.774 168.822 259.806 168.822C262.092 168.822 264.029 169.193 265.616 169.937C267.204 170.68 268.417 171.683 269.255 172.947C270.093 174.211 270.519 175.617 270.531 177.167H264.969C264.816 175.732 264.251 174.715 263.273 174.118C262.295 173.522 261.089 173.223 259.654 173.223C257.99 173.223 256.777 173.563 256.015 174.242C255.253 174.922 254.872 175.7 254.872 176.576C254.872 177.414 255.161 178.09 255.739 178.604C256.317 179.119 257.247 179.509 258.529 179.776L263.311 180.805C265.978 181.326 267.896 182.278 269.064 183.663C270.233 185.047 270.817 186.717 270.817 188.672C270.817 190.337 270.344 191.8 269.398 193.064C268.452 194.327 267.147 195.315 265.483 196.026C263.819 196.737 261.902 197.093 259.73 197.093ZM286.419 197.093C284.59 197.093 282.831 196.788 281.142 196.178C279.453 195.569 278.039 194.655 276.903 193.435C275.766 192.216 275.103 190.686 274.912 188.844H280.609C280.888 190.088 281.564 191.047 282.637 191.72C283.711 192.394 285.079 192.73 286.743 192.73C287.606 192.73 288.435 192.603 289.229 192.349C290.023 192.095 290.667 191.708 291.163 191.187C291.658 190.667 291.905 190.013 291.905 189.225C291.905 188.286 291.563 187.577 290.876 187.101C290.191 186.625 289.257 186.247 288.077 185.967L282.914 184.844C280.704 184.386 278.951 183.545 277.656 182.32C276.361 181.094 275.712 179.364 275.712 177.128C275.712 175.414 276.186 173.937 277.132 172.699C278.078 171.46 279.367 170.505 281 169.832C282.631 169.159 284.463 168.822 286.495 168.822C288.781 168.822 290.718 169.193 292.306 169.937C293.893 170.68 295.106 171.683 295.944 172.947C296.783 174.211 297.208 175.617 297.22 177.167H291.658C291.505 175.732 290.94 174.715 289.962 174.118C288.984 173.522 287.778 173.223 286.343 173.223C284.679 173.223 283.466 173.563 282.704 174.242C281.942 174.922 281.561 175.7 281.561 176.576C281.561 177.414 281.85 178.09 282.428 178.604C283.006 179.119 283.935 179.509 285.219 179.776L290 180.805C292.667 181.326 294.585 182.278 295.754 183.663C296.922 185.047 297.506 186.717 297.506 188.672C297.506 190.337 297.032 191.8 296.087 193.064C295.141 194.327 293.836 195.315 292.172 196.026C290.508 196.737 288.591 197.093 286.419 197.093ZM322.271 197.093C319.705 197.093 317.489 196.496 315.622 195.302C313.755 194.109 312.317 192.432 311.307 190.273C310.297 188.114 309.793 185.593 309.793 182.71C309.793 179.814 310.294 177.328 311.298 175.252C312.301 173.175 313.733 171.578 315.593 170.46C317.454 169.343 319.68 168.784 322.271 168.784C324.341 168.784 326.186 169.2 327.805 170.032C329.424 170.863 330.732 171.998 331.729 173.433C332.726 174.868 333.314 176.487 333.491 178.29H327.662C327.395 176.855 326.798 175.674 325.871 174.747C324.944 173.82 323.687 173.356 322.099 173.356C320.168 173.356 318.654 174.077 317.555 175.519C316.457 176.96 315.908 179.383 315.908 182.786C315.908 186.215 316.457 188.695 317.555 190.226C318.654 191.756 320.168 192.521 322.099 192.521C323.687 192.521 324.944 191.991 325.871 190.93C326.798 189.87 327.395 188.621 327.662 187.186H333.491C333.331 188.472 333.012 189.733 332.539 190.94C332.08 192.115 331.402 193.191 330.539 194.111C329.674 195.032 328.567 195.759 327.214 196.293C325.862 196.826 324.214 197.092 322.271 197.092M338.406 196.712V169.164H357.323L357.304 173.851H343.988V180.538H355.551V185.13H343.95V191.968L357.513 191.988V196.712L338.406 196.712ZM362.695 196.712V169.164H368.2L380.774 187.397V169.165H386.336V196.712H381.326L368.238 177.757V196.712H362.695ZM398.452 196.712V174.118H390.127V169.165H412.168V174.118H404.033V196.712H398.452ZM415.959 196.712V169.164H434.876L434.857 173.851H421.541V180.538H433.104V185.13H421.503V191.968L435.066 191.988V196.712L415.959 196.712ZM445.791 181.815H450.877C452.363 181.815 453.541 181.417 454.411 180.624C455.281 179.83 455.716 178.799 455.716 177.528C455.716 176.271 455.297 175.271 454.459 174.528C453.62 173.785 452.56 173.414 451.277 173.414H445.791V181.815ZM440.247 196.712V169.164H451.868C454.065 169.164 455.862 169.514 457.259 170.213C458.656 170.911 459.685 171.88 460.345 173.118C461.005 174.357 461.336 175.782 461.336 177.395C461.336 178.843 461.114 180.065 460.669 181.062C460.224 182.059 459.634 182.888 458.897 183.548C458.177 184.198 457.369 184.743 456.497 185.168L461.622 196.712H455.849L451.373 186.101H445.791V196.712H440.247ZM0.477133 238.018V213.131H15.1925L15.175 215.127H2.74893V224.456H14.1424V226.452H2.74893V238.018H0.477133ZM29.3905 236.348C31.961 236.348 33.9315 235.473 35.3025 233.723C36.674 231.974 37.3593 229.28 37.3593 225.643C37.3593 221.96 36.6677 219.229 35.285 217.451C33.9028 215.672 31.9382 214.783 29.391 214.783C26.8438 214.783 24.8612 215.678 23.4441 217.468C22.027 219.258 21.319 221.983 21.319 225.643C21.319 229.292 22.027 231.988 23.4441 233.732C24.8612 235.476 26.8433 236.348 29.3905 236.348ZM29.391 238.361C26.1554 238.361 23.6051 237.269 21.7405 235.083C19.8765 232.897 18.9433 229.745 18.9433 225.625C18.9433 221.495 19.8786 218.323 21.749 216.108C23.6194 213.895 26.1665 212.786 29.3905 212.786C32.5917 212.786 35.1161 213.891 36.9632 216.1C38.8103 218.309 39.7344 221.484 39.7344 225.625C39.7344 229.722 38.8134 232.869 36.9716 235.066C35.1304 237.264 32.6033 238.361 29.391 238.361ZM47.4098 224.714H53.3128C55.4702 224.714 57.1277 224.321 58.2869 223.535C59.4456 222.749 60.0249 221.501 60.0249 219.791C60.0249 218.151 59.5261 216.949 58.5278 216.186C57.5296 215.423 56.1125 215.042 54.2766 215.042H47.4098V224.714ZM45.2587 238.018V213.131H54.4148C56.9503 213.131 58.8922 213.684 60.2404 214.792C61.5882 215.899 62.2623 217.491 62.2623 219.568C62.2623 220.944 62.0044 222.08 61.4881 222.976C60.9718 223.87 60.3204 224.576 59.5345 225.092C58.7487 225.609 57.9596 225.993 57.1679 226.246L62.2109 238.018H59.8533L55.0513 226.659H47.4098V238.018H45.2587ZM80.5744 228.5H90.1266L85.341 215.282L80.5744 228.5ZM74.9807 238.018L84.033 213.131H86.7009L95.7367 238.018H93.4824L90.7975 230.617H79.9029L77.2181 238.018H74.9807ZM108.369 238.361C105.088 238.361 102.572 237.264 100.823 235.065C99.073 232.868 98.1976 229.705 98.1976 225.574C98.1976 221.432 99.073 218.266 100.823 216.074C102.572 213.882 105.088 212.787 108.369 212.787C110.056 212.787 111.55 213.145 112.853 213.862C114.155 214.58 115.196 215.524 115.976 216.694C116.757 217.864 117.221 219.126 117.371 220.48H115.03C114.842 219.466 114.453 218.5 113.886 217.64C113.318 216.779 112.571 216.088 111.648 215.566C110.724 215.044 109.626 214.783 108.352 214.783C105.782 214.783 103.846 215.669 102.544 217.443C101.242 219.215 100.59 221.932 100.59 225.592C100.59 229.251 101.242 231.959 102.544 233.715C103.846 235.47 105.782 236.348 108.352 236.348C109.626 236.348 110.724 236.087 111.648 235.565C112.553 235.06 113.321 234.343 113.886 233.474C114.452 232.606 114.841 231.635 115.03 230.617H117.371C117.21 231.948 116.76 233.202 116.019 234.378C115.28 235.554 114.267 236.512 112.982 237.251C111.697 237.992 110.159 238.361 108.369 238.361ZM131.5 238.361C128.219 238.361 125.703 237.264 123.953 235.065C122.204 232.868 121.328 229.705 121.328 225.574C121.328 221.432 122.204 218.266 123.953 216.074C125.703 213.882 128.219 212.787 131.5 212.787C133.187 212.787 134.681 213.145 135.983 213.862C137.285 214.58 138.328 215.524 139.107 216.694C139.887 217.864 140.352 219.126 140.501 220.48H138.161C137.973 219.466 137.584 218.5 137.016 217.64C136.448 216.779 135.702 216.088 134.778 215.566C133.855 215.044 132.757 214.783 131.484 214.783C128.913 214.783 126.977 215.669 125.674 217.443C124.372 219.215 123.721 221.932 123.721 225.592C123.721 229.251 124.372 231.959 125.674 233.715C126.977 235.47 128.913 236.348 131.484 236.348C132.757 236.348 133.855 236.087 134.778 235.565C135.683 235.06 136.452 234.343 137.016 233.474C137.583 232.606 137.971 231.635 138.161 230.617H140.501C140.34 231.948 139.89 233.202 139.15 234.378C138.41 235.554 137.398 236.512 136.112 237.251C134.827 237.992 133.29 238.361 131.5 238.361ZM146.043 238.018V213.131H160.948V215.127H148.194V224.438H159.898V226.452H148.194V235.952L161.361 235.987V238.018H146.043ZM175.094 238.361C173.522 238.361 172.071 238.109 170.74 237.604C169.409 237.1 168.305 236.351 167.427 235.359C166.549 234.366 165.995 233.147 165.766 231.701H168.072C168.417 233.273 169.254 234.458 170.585 235.255C171.916 236.053 173.442 236.452 175.163 236.452C176.379 236.452 177.48 236.253 178.468 235.857C179.454 235.461 180.243 234.9 180.834 234.17C181.425 233.442 181.72 232.579 181.72 231.581C181.72 230.513 181.387 229.63 180.722 228.93C180.057 228.231 178.977 227.668 177.486 227.243L172.117 225.746C171.038 225.46 170.077 225.069 169.234 224.576C168.391 224.082 167.728 223.429 167.246 222.614C166.764 221.8 166.523 220.778 166.523 219.55C166.523 218.219 166.89 217.049 167.625 216.039C168.359 215.03 169.357 214.24 170.619 213.673C171.881 213.105 173.31 212.821 174.905 212.821C176.786 212.821 178.37 213.162 179.655 213.845C180.94 214.528 181.906 215.406 182.555 216.478C183.203 217.551 183.527 218.673 183.527 219.843H181.238C181.123 218.569 180.754 217.56 180.128 216.814C179.513 216.075 178.706 215.521 177.796 215.213C176.867 214.892 175.88 214.731 174.836 214.731C172.885 214.731 171.394 215.191 170.361 216.108C169.328 217.026 168.812 218.134 168.812 219.43C168.812 220.612 169.176 221.525 169.905 222.166C170.634 222.809 171.669 223.313 173.012 223.681L178.381 225.162C180.481 225.723 181.932 226.575 182.736 227.717C183.539 228.858 183.94 230.106 183.94 231.461C183.94 232.779 183.581 233.959 182.864 234.997C182.147 236.035 181.126 236.856 179.801 237.458C178.476 238.061 176.907 238.361 175.094 238.361ZM197.932 238.361C196.36 238.361 194.909 238.109 193.578 237.604C192.247 237.1 191.143 236.351 190.265 235.359C189.387 234.366 188.834 233.147 188.604 231.701H190.911C191.255 233.273 192.092 234.458 193.423 235.255C194.754 236.053 196.28 236.452 198.001 236.452C199.217 236.452 200.319 236.253 201.306 235.857C202.292 235.461 203.081 234.9 203.672 234.17C204.263 233.442 204.558 232.579 204.558 231.581C204.558 230.513 204.226 229.63 203.56 228.93C202.895 228.231 201.816 227.668 200.324 227.243L194.955 225.746C193.876 225.46 192.915 225.069 192.072 224.576C191.229 224.082 190.566 223.429 190.084 222.614C189.603 221.8 189.362 220.778 189.362 219.55C189.362 218.219 189.729 217.049 190.463 216.039C191.197 215.03 192.195 214.24 193.458 213.673C194.72 213.105 196.148 212.821 197.743 212.821C199.624 212.821 201.208 213.162 202.493 213.845C203.778 214.528 204.745 215.406 205.393 216.478C206.042 217.551 206.366 218.673 206.366 219.843H204.076C203.962 218.569 203.592 217.56 202.966 216.814C202.352 216.075 201.544 215.521 200.634 215.213C199.705 214.892 198.718 214.731 197.674 214.731C195.724 214.731 194.232 215.191 193.199 216.108C192.167 217.026 191.65 218.134 191.65 219.43C191.65 220.612 192.015 221.525 192.743 222.166C193.472 222.809 194.507 223.313 195.85 223.681L201.219 225.162C203.319 225.723 204.771 226.575 205.574 227.717C206.377 228.858 206.779 230.106 206.779 231.461C206.779 232.779 206.42 233.959 205.703 234.997C204.986 236.035 203.965 236.856 202.64 237.458C201.314 238.061 199.745 238.361 197.932 238.361ZM212.509 238.018H214.66V213.131H212.509V238.018ZM223.936 236.055H229.289C231.687 236.055 233.514 235.694 234.77 234.972C236.027 234.248 236.655 233.061 236.655 231.409C236.655 230.193 236.342 229.22 235.717 228.491C235.092 227.763 234.254 227.235 233.204 226.909C232.155 226.581 230.993 226.418 229.719 226.418H223.936V236.055ZM223.936 224.439H229.719C230.43 224.439 231.162 224.373 231.913 224.241C232.665 224.108 233.356 223.874 233.987 223.535C234.609 223.205 235.136 222.722 235.519 222.132C235.909 221.536 236.105 220.778 236.105 219.86C236.105 218.197 235.468 216.98 234.194 216.211C232.92 215.443 231.262 215.059 229.22 215.059H223.936V224.439ZM221.785 238.018V213.131H229.22C232.112 213.131 234.332 213.685 235.881 214.792C237.43 215.899 238.204 217.497 238.204 219.584C238.204 220.962 237.845 222.13 237.128 223.087C236.411 224.046 235.175 224.8 233.419 225.351C235.312 225.718 236.687 226.423 237.541 227.468C238.396 228.511 238.823 229.808 238.823 231.357C238.823 233.595 238.012 235.264 236.388 236.365C234.765 237.467 232.433 238.018 229.392 238.018H221.785ZM244.675 238.018L244.709 213.131H246.947V235.935H259.235V238.018H244.675ZM264.536 238.018V213.131H279.441V215.127H266.687V224.438H278.391V226.452H266.687V235.952L279.854 235.987V238.018H264.536ZM294.309 238.018H296.461V213.131H294.309V238.018ZM305.858 236.021H307.975C310.384 236.021 312.418 235.68 314.076 234.997C315.733 234.314 316.99 233.204 317.845 231.666C318.699 230.13 319.127 228.076 319.127 225.506C319.127 222.844 318.697 220.758 317.836 219.25C316.976 217.74 315.728 216.676 314.093 216.056C312.458 215.437 310.476 215.127 308.146 215.127H305.858V236.021ZM303.586 238.018V213.131C304.495 213.141 305.404 213.15 306.313 213.157C307.042 213.162 307.751 213.165 308.439 213.165C313.04 213.2 316.35 214.233 318.369 216.263C320.389 218.294 321.399 221.34 321.399 225.403C321.399 229.67 320.309 232.84 318.128 234.911C315.949 236.982 312.581 238.018 308.026 238.018H303.586ZM326.94 238.018V213.131H341.845V215.127H329.091V224.438H340.795V226.452H329.091V235.952L342.258 235.987V238.018H326.94ZM351.362 228.5H360.914L356.129 215.282L351.362 228.5ZM345.768 238.018L354.821 213.131H357.489L366.524 238.018H364.27L361.585 230.617H350.69L348.006 238.018H345.768ZM382.736 236.021H384.853C387.262 236.021 389.296 235.68 390.954 234.997C392.612 234.314 393.869 233.204 394.723 231.666C395.578 230.13 396.006 228.076 396.006 225.506C396.006 222.844 395.575 220.758 394.715 219.25C393.854 217.74 392.607 216.676 390.971 216.056C389.337 215.437 387.354 215.127 385.025 215.127H382.736V236.021ZM380.464 238.018V213.131C381.374 213.141 382.283 213.15 383.192 213.157C383.921 213.162 384.629 213.165 385.318 213.165C389.919 213.2 393.229 214.233 395.248 216.263C397.267 218.294 398.278 221.34 398.278 225.403C398.278 229.67 397.187 232.84 395.007 234.911C392.827 236.982 389.459 238.018 384.905 238.018H380.464ZM406.625 228.5H416.177L411.392 215.282L406.625 228.5ZM401.031 238.018L410.084 213.131H412.752L421.788 238.018H419.533L416.848 230.617H405.954L403.269 238.018H401.031ZM429.602 238.018V215.179H421.289V213.131H439.515V215.179H431.77V238.018H429.602ZM444.609 228.5H454.161L449.377 215.282L444.609 228.5ZM439.016 238.018L448.068 213.131H450.736L459.772 238.018H457.517L454.833 230.617H443.938L441.253 238.018H439.016Z" fill="var(--usa-ink)"/>
</svg>
