<svg width="100%" height="100%" viewBox="0 0 800 141" fill="none" xmlns="http://www.w3.org/2000/svg">
<path d="M283.893 140.784C283.069 140.785 282.254 140.61 281.503 140.269C280.753 139.929 280.084 139.432 279.541 138.811C238.757 92.2548 208.178 68.6135 183.644 51.6285C165.856 39.3133 150.307 34.4064 137.432 37.0422C126.961 39.1858 120.423 45.9076 116.783 51.1699C112.903 56.7767 110.805 63.9461 110.873 71.3578C110.903 74.5514 108.338 77.1646 105.145 77.1942H105.09C101.92 77.1942 99.3379 74.6407 99.3078 71.4651C99.2168 61.6871 102.045 52.1423 107.272 44.5885C111.239 38.8541 120.132 28.7782 135.112 25.711C151.2 22.4176 169.745 27.9386 190.228 42.1196C215.343 59.507 246.628 83.6864 288.241 131.19C290.345 133.593 290.104 137.246 287.701 139.351C286.648 140.276 285.295 140.785 283.893 140.783" fill="var(--usa-ink)"/>
<path d="M5.78057 140.784C4.3792 140.785 3.02537 140.276 1.97237 139.351C-0.429793 137.246 -0.67158 133.593 1.43314 131.19C43.0462 83.6864 74.3312 59.507 99.4463 42.1196C119.93 27.9386 138.473 22.4176 154.562 25.711C169.543 28.7782 178.435 38.8547 182.402 44.589C187.629 52.1417 190.456 61.6871 190.366 71.4651C190.336 74.6407 187.753 77.1936 184.584 77.1936H184.53C181.335 77.1646 178.771 74.5514 178.801 71.3578C178.87 63.9461 176.771 56.7767 172.891 51.1699C169.25 45.9076 162.713 39.1852 152.242 37.0422C139.366 34.4058 123.818 39.3139 106.029 51.6285C81.4959 68.6141 50.9166 92.2542 10.1326 138.811C9.59025 139.432 8.92117 139.929 8.17045 140.269C7.41972 140.61 6.6048 140.785 5.78057 140.784Z" fill="var(--usa-ink)"/>
<path d="M5.78057 6.29975e-06C4.3792 -0.00129241 3.02537 0.508049 1.97237 1.43273C-0.429793 3.53744 -0.67158 7.19083 1.43314 9.59357C43.0462 57.0976 74.3312 81.2769 99.4463 98.6643C119.93 112.845 138.473 118.366 154.562 115.073C169.543 112.006 178.435 101.929 182.402 96.1949C187.629 88.6423 190.456 79.0968 190.366 69.3188C190.336 66.1432 187.753 63.5903 184.584 63.5903H184.53C181.335 63.6193 178.771 66.2325 178.801 69.4261C178.87 76.8378 176.771 84.0072 172.891 89.614C169.25 94.8764 162.713 101.599 152.242 103.742C139.366 106.378 123.818 101.47 106.029 89.1554C81.4959 72.1698 50.9166 48.5297 10.1326 1.97253C9.59025 1.35191 8.92117 0.854728 8.17045 0.514473C7.41972 0.174218 6.6048 -0.00121176 5.78057 6.29975e-06Z" fill="var(--usa-ink)"/>
<path d="M144.373 116.103C141.193 116.103 138.096 115.795 135.086 115.178C120.105 112.111 111.212 102.034 107.245 96.3008C102.019 88.7476 99.1904 79.2022 99.2814 69.4248C99.311 66.2492 101.895 63.6956 105.063 63.6956H105.118C108.311 63.7246 110.877 66.3384 110.847 69.532C110.778 76.9438 112.876 84.1131 116.756 89.7199C120.397 94.9817 126.934 101.704 137.405 103.848C150.281 106.483 165.829 101.576 183.617 89.2613C208.152 72.2751 238.731 48.635 279.515 2.07843C281.62 -0.32373 285.273 -0.565506 287.676 1.53922C290.078 3.64335 290.32 7.29673 288.215 9.69947C246.602 57.2035 215.317 81.3828 190.202 98.7702C173.551 110.297 158.182 116.103 144.373 116.103Z" fill="var(--usa-ink)"/>
<path d="M343.923 48.6339H349.009C350.495 48.6339 351.673 48.2367 352.543 47.4435C353.413 46.6491 353.848 45.6181 353.848 44.3477C353.848 43.0905 353.429 42.0901 352.591 41.3472C351.752 40.6042 350.692 40.233 349.409 40.233H343.923V48.6339ZM338.378 63.5314V35.9838H350C352.197 35.9838 353.994 36.3333 355.391 37.0323C356.788 37.7308 357.816 38.6994 358.477 39.9375C359.137 41.1761 359.468 42.6012 359.468 44.2142C359.468 45.662 359.245 46.8848 358.801 47.8814C358.357 48.8785 357.766 49.7073 357.029 50.3677C356.309 51.0171 355.501 51.5622 354.629 51.987L359.754 63.5314H353.981L349.504 52.9201H343.923V63.5314H338.378ZM364.897 63.5314V35.9838H370.441V47.0341H382.499V35.9843H388.063V63.5314H382.5V51.7011H370.441V63.5314H364.897ZM405.683 59.34C407.69 59.34 409.287 58.6065 410.474 57.1402C411.662 55.6733 412.256 53.2569 412.256 49.8916C412.256 46.4495 411.658 43.9695 410.465 42.4523C409.271 40.9346 407.677 40.1752 405.683 40.1752C403.676 40.1752 402.073 40.9378 400.873 42.4614C399.673 43.9854 399.073 46.4617 399.073 49.8911C399.073 53.257 399.673 55.6728 400.873 57.1397C402.073 58.6065 403.676 59.34 405.683 59.34ZM405.683 63.9122C403.079 63.9122 400.828 63.3471 398.93 62.2165C397.031 61.0859 395.564 59.4671 394.529 57.3589C393.494 55.2513 392.976 52.7359 392.976 49.8153C392.976 46.8816 393.501 44.3503 394.548 42.2231C395.597 40.0969 397.073 38.4606 398.977 37.3183C400.883 36.1745 403.117 35.6031 405.683 35.6031C408.236 35.6031 410.458 36.175 412.351 37.3183C414.243 38.4606 415.707 40.0963 416.742 42.2231C417.777 44.3508 418.294 46.8816 418.294 49.8153C418.294 52.7232 417.783 55.2322 416.761 57.3404C415.739 59.448 414.281 61.0706 412.389 62.207C410.496 63.3445 408.261 63.9122 405.683 63.9122ZM423.209 63.5314V35.9838H428.715L441.289 54.216V35.9843H446.851V63.5314H441.841L428.753 44.5764V63.5314H423.209ZM458.605 59.0355H461.158C462.732 59.0355 464.164 58.7304 465.454 58.1209C466.742 57.5114 467.774 56.5148 468.549 55.13C469.324 53.7462 469.712 51.8981 469.712 49.5866C469.712 46.3732 468.953 44.0527 467.435 42.6229C465.917 41.1947 463.85 40.4803 461.234 40.4803H458.605V59.0355ZM453.004 63.5314V35.9838H456.443C457.312 35.9838 458.183 35.988 459.053 35.9939C459.923 36.0007 460.65 36.0098 461.234 36.0225C464.574 36.0987 467.295 36.6961 469.397 37.8134C471.499 38.9308 473.045 40.493 474.036 42.4995C475.026 44.5065 475.522 46.881 475.522 49.6247C475.522 52.4822 475.001 54.9494 473.96 57.0258C472.918 59.1017 471.327 60.7057 469.187 61.8358C467.047 62.9664 464.332 63.5314 461.043 63.5314H453.004ZM486.304 52.2915H493.619L489.98 41.3376L486.304 52.2915ZM477.179 63.5314L487.028 35.9843H492.914L502.763 63.5314H497.219L494.971 57.1492H485.046L482.76 63.5314H477.179ZM520.632 63.5314L512.516 35.9838H517.965L523.089 54.1778L528.214 35.9843H532.233L537.415 54.1778L542.54 35.9843H547.969L539.835 63.5314H535.396L530.214 45.5286L524.994 63.5314H520.632ZM551.779 63.5314V35.9838H570.696L570.677 40.6704H557.361V47.3576H568.924V51.9489H557.323V58.7877L570.886 58.8072V63.5309L551.779 63.5314ZM576.067 63.5314H581.611V35.9843H576.067V63.5314ZM598.108 63.9122C596.309 63.9176 594.523 63.6081 592.831 62.9976C591.142 62.3887 589.729 61.4741 588.593 60.2545C587.456 59.0355 586.792 57.5051 586.602 55.6632H592.298C592.577 56.9077 593.253 57.8662 594.327 58.5398C595.4 59.2134 596.768 59.5497 598.432 59.5497C599.296 59.5497 600.124 59.4226 600.918 59.1684C601.712 58.9142 602.356 58.5276 602.852 58.0065C603.347 57.486 603.594 56.832 603.594 56.0445C603.594 55.1051 603.252 54.3965 602.566 53.9205C601.88 53.4439 600.947 53.0663 599.766 52.7867L594.603 51.663C592.393 51.2054 590.64 50.3645 589.345 49.1391C588.05 47.9132 587.402 46.1831 587.402 43.9473C587.402 42.2331 587.875 40.7567 588.821 39.5186C589.767 38.2794 591.057 37.3247 592.689 36.6511C594.32 35.978 596.153 35.6417 598.184 35.6417C600.471 35.6417 602.407 36.0124 603.995 36.7559C605.582 37.4994 606.795 38.5024 607.633 39.7659C608.472 41.03 608.897 42.4365 608.91 43.986H603.347C603.195 42.5509 602.63 41.5341 601.652 40.9378C600.673 40.341 599.467 40.0423 598.032 40.0423C596.368 40.0423 595.155 40.3823 594.393 41.0617C593.631 41.7412 593.251 42.5191 593.251 43.395C593.251 44.2333 593.539 44.9095 594.117 45.4232C594.695 45.9384 595.625 46.3287 596.908 46.5956L601.69 47.6246C604.357 48.1451 606.274 49.0978 607.443 50.482C608.611 51.8663 609.196 53.5366 609.196 55.4917C609.196 57.1561 608.722 58.6198 607.776 59.8833C606.83 61.1468 605.525 62.1339 603.861 62.8456C602.198 63.5568 600.28 63.9122 598.108 63.9122ZM624.797 63.9122C622.968 63.9122 621.209 63.6077 619.52 62.9976C617.831 62.3887 616.418 61.4741 615.282 60.2545C614.145 59.0355 613.481 57.5051 613.291 55.6632H618.987C619.266 56.9077 619.942 57.8662 621.015 58.5398C622.089 59.2134 623.457 59.5497 625.121 59.5497C625.985 59.5497 626.813 59.4226 627.607 59.1684C628.401 58.9142 629.046 58.5276 629.541 58.0065C630.036 57.486 630.283 56.832 630.283 56.0445C630.283 55.1051 629.941 54.3965 629.255 53.9205C628.569 53.4439 627.635 53.0663 626.455 52.7867L621.292 51.663C619.082 51.2054 617.329 50.3645 616.034 49.1391C614.739 47.9132 614.091 46.1831 614.091 43.9473C614.091 42.2331 614.564 40.7567 615.511 39.5186C616.456 38.2794 617.746 37.3247 619.378 36.6511C621.01 35.978 622.842 35.6417 624.874 35.6417C627.16 35.6417 629.096 36.0124 630.684 36.7559C632.272 37.4994 633.484 38.5024 634.323 39.7659C635.161 41.03 635.586 42.4365 635.599 43.986H630.036C629.884 42.5509 629.319 41.5341 628.341 40.9378C627.363 40.341 626.156 40.0423 624.721 40.0423C623.057 40.0423 621.845 40.3823 621.082 41.0617C620.321 41.7412 619.94 42.5191 619.94 43.395C619.94 44.2333 620.228 44.9095 620.806 45.4232C621.384 45.9384 622.314 46.3287 623.597 46.5956L628.378 47.6246C631.046 48.1451 632.963 49.0978 634.132 50.482C635.3 51.8663 635.884 53.5366 635.884 55.4917C635.884 57.1561 635.411 58.6198 634.466 59.8833C633.519 61.1468 632.214 62.1339 630.551 62.8456C628.887 63.5568 626.969 63.9122 624.797 63.9122ZM660.649 63.9122C658.083 63.9122 655.867 63.3154 654 62.1217C652.133 60.9281 650.696 59.2516 649.686 57.0925C648.676 54.9335 648.171 52.4123 648.171 49.5294C648.171 46.6337 648.673 44.1475 649.676 42.0711C650.679 39.9947 652.111 38.3975 653.972 37.2796C655.832 36.1623 658.058 35.6036 660.649 35.6036C662.719 35.6036 664.564 36.0198 666.183 36.8512C667.802 37.6826 669.11 38.8169 670.108 40.252C671.104 41.6871 671.692 43.3065 671.869 45.1097H666.041C665.774 43.6746 665.176 42.4937 664.25 41.5664C663.322 40.6392 662.065 40.1758 660.478 40.1758C658.547 40.1758 657.032 40.896 655.934 42.338C654.835 43.7794 654.286 46.2022 654.286 49.6056C654.286 53.0345 654.835 55.5144 655.934 57.0449C657.032 58.5753 658.547 59.3405 660.478 59.3405C662.065 59.3405 663.322 58.8099 664.25 57.7497C665.176 56.689 665.774 55.4408 666.041 54.0057H671.869C671.71 55.2917 671.39 56.5527 670.917 57.7592C670.459 58.9343 669.78 60.0108 668.917 60.9308C668.053 61.8517 666.945 62.5787 665.592 63.112C664.24 63.6458 662.592 63.9116 660.649 63.9116M676.784 63.5314V35.9838H695.701L695.682 40.6704H682.366V47.3576H693.93V51.9489H682.328V58.7877L695.892 58.8072V63.5309L676.784 63.5314ZM701.073 63.5314V35.9838H706.578L719.152 54.216V35.9843H724.715V63.5314H719.704L706.617 44.5764V63.5314H701.073ZM736.83 63.5314V40.9378H728.506V35.9843H750.546V40.9378H742.412V63.5314H736.83ZM754.337 63.5314V35.9838H773.254L773.236 40.6704H759.919V47.3576H771.482V51.9489H759.881V58.7877L773.445 58.8072V63.5309L754.337 63.5314ZM784.169 48.6339H789.255C790.741 48.6339 791.92 48.2367 792.789 47.4435C793.659 46.6491 794.094 45.6181 794.094 44.3477C794.094 43.0905 793.675 42.0901 792.837 41.3472C791.999 40.6042 790.938 40.233 789.656 40.233H784.169V48.6339ZM778.625 63.5314V35.9838H790.247C792.443 35.9838 794.24 36.3333 795.637 37.0323C797.035 37.7308 798.063 38.6994 798.723 39.9375C799.383 41.1761 799.714 42.6012 799.714 44.2142C799.714 45.662 799.492 46.8848 799.048 47.8814C798.603 48.8785 798.012 49.7073 797.276 50.3677C796.555 51.0169 795.747 51.562 794.876 51.987L800 63.5314H794.228L789.751 52.9201H784.169V63.5314H778.625ZM338.856 104.837V79.9504H353.571L353.553 81.9468H341.127V91.275H352.521V93.2714H341.127V104.837H338.856ZM367.769 103.167C370.339 103.167 372.31 102.292 373.681 100.542C375.052 98.7931 375.738 96.0993 375.738 92.4623C375.738 88.7792 375.046 86.0483 373.663 84.27C372.281 82.4917 370.317 81.6021 367.769 81.6021C365.222 81.6021 363.24 82.497 361.822 84.2869C360.405 86.0774 359.697 88.8025 359.697 92.4623C359.697 96.1109 360.405 98.8074 361.822 100.551C363.24 102.296 365.222 103.167 367.769 103.167ZM367.769 105.181C364.534 105.181 361.983 104.088 360.119 101.903C358.255 99.7162 357.322 96.5647 357.322 92.4448C357.322 88.3142 358.257 85.1422 360.127 82.9276C361.998 80.714 364.545 79.6056 367.769 79.6056C370.97 79.6056 373.494 80.7103 375.342 82.9191C377.189 85.1279 378.113 88.3031 378.113 92.4448C378.113 96.5409 377.192 99.6881 375.35 101.885C373.509 104.083 370.982 105.181 367.769 105.181ZM385.788 91.5329H391.691C393.849 91.5329 395.506 91.1399 396.665 90.3541C397.824 89.5682 398.403 88.3206 398.403 86.6106C398.403 84.9701 397.904 83.768 396.906 83.0049C395.908 82.2423 394.491 81.861 392.655 81.861H385.788V91.5329ZM383.637 104.837V79.9498H392.793C395.329 79.9498 397.271 80.5038 398.619 81.6111C399.967 82.7184 400.641 84.3102 400.641 86.3877C400.641 87.7635 400.383 88.8994 399.866 89.7949C399.35 90.6898 398.699 91.3952 397.913 91.9115C397.127 92.4278 396.338 92.8123 395.546 93.0649L400.589 104.837H398.232L393.43 93.478H385.788V104.837H383.637ZM418.953 95.3192H428.505L423.719 82.1015L418.953 95.3192ZM413.359 104.837L422.411 79.9504H425.079L434.115 104.837H431.861L429.176 97.4364H418.281L415.596 104.837H413.359ZM446.748 105.181C443.466 105.181 440.951 104.083 439.201 101.885C437.451 99.6876 436.576 96.524 436.576 92.3934C436.576 88.2512 437.451 85.085 439.201 82.8931C440.951 80.7013 443.466 79.6062 446.748 79.6062C448.434 79.6062 449.929 79.9642 451.231 80.6812C452.533 81.3993 453.575 82.3429 454.355 83.5132C455.135 84.683 455.6 85.9455 455.749 87.2991H453.409C453.221 86.2854 452.832 85.3197 452.264 84.459C451.696 83.5985 450.95 82.9074 450.026 82.3853C449.103 81.8631 448.004 81.6026 446.731 81.6026C444.16 81.6026 442.224 82.4886 440.922 84.262C439.62 86.0345 438.969 88.7511 438.969 92.4109C438.969 96.0707 439.62 98.7783 440.922 100.534C442.224 102.29 444.16 103.168 446.731 103.168C448.004 103.168 449.103 102.907 450.026 102.384C450.931 101.88 451.699 101.162 452.264 100.293C452.83 99.4256 453.219 98.4545 453.409 97.4359H455.749C455.588 98.7672 455.138 100.021 454.398 101.197C453.658 102.373 452.645 103.331 451.36 104.071C450.075 104.811 448.538 105.181 446.748 105.181ZM469.878 105.181C466.597 105.181 464.082 104.083 462.332 101.885C460.582 99.6876 459.707 96.524 459.707 92.3934C459.707 88.2512 460.582 85.085 462.332 82.8931C464.082 80.7013 466.597 79.6062 469.878 79.6062C471.565 79.6062 473.06 79.9642 474.362 80.6812C475.664 81.3993 476.706 82.3429 477.485 83.5132C478.265 84.683 478.73 85.9455 478.88 87.2991H476.539C476.352 86.2853 475.963 85.3195 475.395 84.459C474.827 83.5985 474.08 82.9074 473.157 82.3853C472.233 81.8631 471.135 81.6026 469.862 81.6026C467.291 81.6026 465.355 82.4886 464.053 84.262C462.751 86.0345 462.099 88.7511 462.099 92.4109C462.099 96.0707 462.751 98.7783 464.053 100.534C465.355 102.29 467.291 103.168 469.862 103.168C471.135 103.168 472.233 102.907 473.157 102.384C474.062 101.88 474.83 101.162 475.395 100.293C475.961 99.4257 476.35 98.4545 476.539 97.4359H478.88C478.719 98.7672 478.269 100.021 477.528 101.197C476.789 102.373 475.776 103.331 474.491 104.071C473.206 104.811 471.669 105.181 469.878 105.181ZM484.422 104.837V79.9504H499.326V81.9468H486.573V91.2575H498.276V93.2714H486.573V102.772L499.739 102.806V104.837H484.422ZM513.473 105.181C511.9 105.181 510.449 104.929 509.118 104.423C507.787 103.919 506.683 103.17 505.805 102.178C504.927 101.186 504.374 99.9666 504.145 98.5204H506.451C506.795 100.093 507.632 101.277 508.963 102.075C510.294 102.872 511.82 103.271 513.542 103.271C514.757 103.271 515.859 103.072 516.846 102.676C517.833 102.281 518.621 101.719 519.212 100.99C519.803 100.262 520.098 99.3984 520.098 98.4002C520.098 97.3326 519.766 96.4493 519.1 95.7492C518.435 95.0502 517.356 94.4878 515.865 94.0626L510.495 92.5655C509.416 92.279 508.456 91.8882 507.613 91.3952C506.769 90.9016 506.106 90.2482 505.625 89.4337C505.143 88.6192 504.902 87.5977 504.902 86.3697C504.902 85.0384 505.269 83.8681 506.003 82.8587C506.737 81.8494 507.735 81.0598 508.998 80.4921C510.26 79.9244 511.688 79.6406 513.283 79.6406C515.165 79.6406 516.748 79.9816 518.033 80.6642C519.318 81.3474 520.285 82.2248 520.933 83.2977C521.582 84.3706 521.906 85.4922 521.906 86.662H519.617C519.502 85.3884 519.132 84.3796 518.507 83.6329C517.892 82.8946 517.085 82.3407 516.174 82.0326C515.245 81.7117 514.258 81.5507 513.214 81.5507C511.263 81.5507 509.772 82.0104 508.739 82.9276C507.707 83.8453 507.19 84.9531 507.19 86.249C507.19 87.4315 507.555 88.3439 508.283 88.9857C509.012 89.6286 510.048 90.1327 511.39 90.5002L516.76 91.9809C518.859 92.5422 520.311 93.3948 521.114 94.536C521.917 95.6777 522.319 96.9254 522.319 98.28C522.319 99.5986 521.96 100.778 521.243 101.816C520.526 102.854 519.505 103.675 518.18 104.278C516.854 104.88 515.285 105.181 513.473 105.181ZM536.311 105.181C534.739 105.181 533.288 104.929 531.956 104.423C530.626 103.919 529.521 103.17 528.643 102.178C527.765 101.186 527.212 99.9666 526.983 98.5204H529.289C529.633 100.093 530.47 101.277 531.802 102.075C533.132 102.872 534.659 103.271 536.38 103.271C537.596 103.271 538.697 103.072 539.684 102.676C540.671 102.281 541.459 101.719 542.05 100.99C542.641 100.262 542.937 99.3984 542.937 98.4002C542.937 97.3326 542.604 96.4493 541.938 95.7492C541.273 95.0502 540.194 94.4878 538.703 94.0626L533.333 92.5655C532.254 92.279 531.294 91.8882 530.451 91.3952C529.607 90.9016 528.945 90.2482 528.463 89.4337C527.981 88.6192 527.74 87.5977 527.74 86.3697C527.74 85.0384 528.107 83.8681 528.841 82.8587C529.575 81.8494 530.574 81.0598 531.836 80.4921C533.098 79.9244 534.526 79.6406 536.121 79.6406C538.003 79.6406 539.587 79.9816 540.871 80.6642C542.157 81.3474 543.123 82.2248 543.771 83.2977C544.42 84.3706 544.744 85.4922 544.744 86.662H542.455C542.34 85.3884 541.97 84.3796 541.345 83.6329C540.73 82.8946 539.923 82.3407 539.013 82.0326C538.083 81.7117 537.096 81.5507 536.052 81.5507C534.102 81.5507 532.61 82.0104 531.578 82.9276C530.545 83.8453 530.029 84.9531 530.029 86.249C530.029 87.4315 530.393 88.3439 531.122 88.9857C531.85 89.6286 532.886 90.1327 534.228 90.5002L539.598 91.9809C541.698 92.5422 543.149 93.3948 543.952 94.536C544.755 95.6777 545.157 96.9254 545.157 98.28C545.157 99.5986 544.798 100.778 544.081 101.816C543.364 102.854 542.343 103.675 541.018 104.278C539.693 104.88 538.124 105.181 536.311 105.181ZM550.888 104.837H553.039V79.9504H550.888V104.837ZM562.315 102.874H567.667C570.066 102.874 571.892 102.513 573.149 101.791C574.405 101.068 575.034 99.8803 575.034 98.2281C575.034 97.0122 574.721 96.0394 574.095 95.3102C573.47 94.5826 572.633 94.0546 571.583 93.7279C570.533 93.4006 569.371 93.237 568.098 93.237H562.315V102.874ZM562.315 91.258H568.098C568.809 91.258 569.541 91.1918 570.292 91.06C571.043 90.9276 571.735 90.693 572.366 90.3541C572.987 90.0243 573.515 89.5417 573.898 88.9518C574.288 88.355 574.483 87.5977 574.483 86.6795C574.483 85.0161 573.846 83.7997 572.572 83.0308C571.299 82.2624 569.641 81.878 567.599 81.878H562.315V91.258ZM560.164 104.837V79.9504H567.599C570.49 79.9504 572.71 80.5043 574.259 81.6111C575.808 82.7178 576.582 84.3166 576.582 86.4036C576.582 87.7815 576.224 88.9492 575.507 89.9066C574.79 90.8651 573.554 91.6192 571.798 92.1699C573.691 92.5375 575.065 93.2428 575.92 94.2871C576.774 95.3303 577.202 96.6278 577.202 98.1762C577.202 100.414 576.391 102.083 574.767 103.185C573.143 104.286 570.811 104.837 567.77 104.837H560.164ZM583.053 104.837L583.088 79.9504H585.325V102.754H597.614V104.837H583.053ZM602.915 104.837V79.9504H617.819V81.9468H605.066V91.2575H616.769V93.2714H605.066V102.772L618.232 102.806V104.837H602.915ZM632.688 104.837H634.839V79.9504H632.688V104.837ZM644.236 102.841H646.353C648.762 102.841 650.796 102.499 652.454 101.816C654.112 101.133 655.368 100.024 656.223 98.4855C657.078 96.9492 657.506 94.8951 657.506 92.3251C657.506 89.663 657.075 87.5776 656.215 86.0689C655.354 84.5597 654.106 83.4952 652.471 82.8757C650.836 82.2561 648.854 81.9468 646.525 81.9468H644.236V102.841ZM641.964 104.837V79.9504C642.873 79.9605 643.783 79.9692 644.692 79.9763C645.421 79.9816 646.129 79.9848 646.818 79.9848C651.418 80.0192 654.729 81.0519 656.748 83.0827C658.767 85.1136 659.777 88.1596 659.777 92.2218C659.777 96.4895 658.687 99.6595 656.507 101.731C654.327 103.801 650.959 104.837 646.404 104.837H641.964ZM665.319 104.837V79.9504H680.223V81.9468H667.47V91.2575H679.174V93.2714H667.47V102.772L680.636 102.806V104.837H665.319ZM689.74 95.3192H699.293L694.507 82.1015L689.74 95.3192ZM684.147 104.837L693.199 79.9504H695.867L704.903 104.837H702.648L699.964 97.4364H689.069L686.385 104.837H684.147ZM721.115 102.841H723.232C725.641 102.841 727.675 102.499 729.333 101.816C730.99 101.133 732.247 100.024 733.102 98.4855C733.956 96.9492 734.384 94.8951 734.384 92.3251C734.384 89.663 733.954 87.5776 733.093 86.0689C732.233 84.5597 730.985 83.4952 729.35 82.8757C727.715 82.2561 725.733 81.9468 723.403 81.9468H721.115V102.841ZM718.843 104.837V79.9504C719.752 79.9605 720.661 79.9692 721.571 79.9763C722.299 79.9816 723.008 79.9848 723.696 79.9848C728.297 80.0192 731.607 81.0519 733.626 83.0827C735.646 85.1136 736.656 88.1596 736.656 92.2218C736.656 96.4895 735.566 99.6595 733.386 101.731C731.206 103.801 727.838 104.837 723.283 104.837H718.843ZM745.004 95.3192H754.555L749.771 82.1015L745.004 95.3192ZM739.41 104.837L748.463 79.9504H751.13L760.166 104.837H757.911L755.227 97.4364H744.332L741.647 104.837H739.41ZM767.98 104.837V81.9987H759.668V79.9504H777.893V81.9987H770.149V104.837H767.98ZM782.988 95.3192H792.54L787.755 82.1015L782.988 95.3192ZM777.394 104.837L786.447 79.9504H789.114L798.15 104.837H795.896L793.211 97.4364H782.316L779.632 104.837H777.394Z" fill="var(--usa-ink)"/>
</svg>
