<?xml version="1.0" encoding="utf-8"?>
<svg width="100%" height="100%" viewBox="0 0 112 49" fill="none" xmlns="http://www.w3.org/2000/svg">
  <path d="M2.91201 27.6024C4.17761 26.3928 5.65601 25.4856 7.34161 24.8808C9.02721 24.276 10.7464 23.9736 12.5048 23.9736C14.3192 23.9736 15.8536 24.1976 17.108 24.6456C18.3624 25.0936 19.376 25.7824 20.1544 26.7176C20.9328 27.6528 21.4984 28.8344 21.8624 30.2624C22.2208 31.6904 22.4 33.3816 22.4 35.3416V46.1888H15.9152V43.8984H15.7864C15.2376 44.7888 14.4088 45.4832 13.3 45.9704C12.1912 46.4576 10.9872 46.704 9.69361 46.704C8.83121 46.704 7.93521 46.5864 7.01681 46.3568C6.09281 46.1272 5.25281 45.752 4.49121 45.2312C3.72961 44.7104 3.10241 44.0216 2.60961 43.1592C2.11681 42.2968 1.87601 41.2272 1.87601 39.9616C1.87601 38.4048 2.30161 37.1504 3.15281 36.204C4.00401 35.252 5.09601 34.5184 6.43441 34.0032C7.77281 33.4824 9.26241 33.1408 10.9088 32.9672C12.5496 32.7936 14.1512 32.7096 15.7024 32.7096V32.3624C15.7024 31.2984 15.3272 30.5144 14.5768 30.0104C13.8264 29.5064 12.908 29.2544 11.8104 29.2544C10.8024 29.2544 9.82801 29.4728 8.89281 29.904C7.95761 30.3352 7.15681 30.856 6.49601 31.4608L2.91201 27.6024ZM15.9152 36.8088H15.008C14.2296 36.8088 13.4456 36.8424 12.6504 36.9152C11.8552 36.988 11.1552 37.1224 10.5336 37.324C9.91201 37.5256 9.40241 37.8224 8.99921 38.2088C8.59601 38.5952 8.39441 39.1104 8.39441 39.7432C8.39441 40.1464 8.48961 40.4936 8.67441 40.7792C8.85921 41.0704 9.10001 41.3 9.38561 41.468C9.67121 41.6416 10.0072 41.7648 10.3768 41.8376C10.752 41.9104 11.1104 41.944 11.4576 41.944C12.8968 41.944 14 41.5464 14.7616 40.7568C15.5232 39.9672 15.904 38.892 15.904 37.5368V36.8088H15.9152Z" style="fill: rgb(0, 0, 0);"/>
  <path d="M46.5136 35.683V36.5454C46.5136 36.831 46.4968 37.1054 46.4688 37.3686H30.8728C30.9288 37.9734 31.108 38.5222 31.4104 39.0094C31.7128 39.5022 32.0992 39.9222 32.5752 40.2862C33.0512 40.6446 33.5832 40.9302 34.1712 41.1262C34.7592 41.3278 35.3752 41.4286 36.008 41.4286C37.1336 41.4286 38.08 41.2214 38.8584 40.8014C39.6368 40.3814 40.2696 39.8438 40.7568 39.183L45.6848 42.2966C44.6768 43.7638 43.344 44.895 41.6864 45.6902C40.0288 46.4798 38.108 46.8774 35.9184 46.8774C34.3056 46.8774 32.7768 46.6254 31.3376 46.1214C29.8984 45.6174 28.6384 44.8838 27.5576 43.915C26.4768 42.9518 25.6256 41.7646 25.0096 40.3478C24.388 38.9366 24.08 37.3238 24.08 35.5094C24.08 33.751 24.3824 32.1606 24.9872 30.7326C25.592 29.3046 26.4152 28.095 27.4512 27.1038C28.4872 26.1126 29.7136 25.3398 31.1248 24.791C32.536 24.2422 34.0648 23.9678 35.7056 23.9678C37.2904 23.9678 38.7464 24.2366 40.068 24.7686C41.3952 25.3006 42.532 26.0734 43.484 27.0814C44.436 28.0894 45.1752 29.3158 45.7072 30.755C46.2448 32.1998 46.5136 33.8406 46.5136 35.683ZM39.9896 32.9614C39.9896 31.8358 39.6368 30.8726 38.9312 30.0662C38.2256 29.2598 37.1672 28.8566 35.756 28.8566C35.0672 28.8566 34.4288 28.963 33.8576 29.1814C33.2808 29.3942 32.7768 29.691 32.3456 30.0662C31.9144 30.4414 31.5672 30.8782 31.3096 31.3822C31.052 31.8862 30.9064 32.4126 30.8784 32.9614H39.9896Z" style="fill: rgb(0, 0, 0);"/>
  <path d="M75.8968 46.183V34.4286C75.8968 33.8238 75.852 33.2414 75.768 32.6814C75.684 32.1214 75.5216 31.6398 75.292 31.231C75.0624 30.8278 74.7544 30.503 74.3624 30.2566C73.976 30.0102 73.4608 29.887 72.828 29.887C72.2232 29.887 71.6968 30.0158 71.2488 30.2734C70.8008 30.531 70.4256 30.8782 70.1232 31.3094C69.8208 31.7406 69.5968 32.239 69.4512 32.799C69.3056 33.359 69.2328 33.9414 69.2328 34.5462V46.1662H62.1488V33.9134C62.1488 32.6758 61.9024 31.6958 61.4152 30.9734C60.928 30.251 60.1496 29.8926 59.08 29.8926C57.9544 29.8926 57.0864 30.3406 56.4648 31.231C55.8432 32.127 55.5352 33.219 55.5352 34.5126V46.1774H48.4176V24.6678H55.2888V27.647H55.3728C55.6304 27.1878 55.9552 26.7398 56.3472 26.3086C56.7336 25.8774 57.204 25.4966 57.7528 25.1662C58.3016 24.8358 58.912 24.567 59.5896 24.3654C60.2672 24.1638 61.0064 24.063 61.8128 24.063C63.3696 24.063 64.6856 24.3822 65.7664 25.015C66.8472 25.6478 67.6872 26.555 68.292 27.7366C69.0088 26.6166 69.9328 25.7206 71.0584 25.0598C72.184 24.399 73.5504 24.0686 75.1632 24.0686C76.6304 24.0686 77.8624 24.3374 78.8592 24.8694C79.8504 25.4014 80.6512 26.0958 81.256 26.9414C81.8608 27.7926 82.2976 28.7446 82.572 29.7918C82.8464 30.8446 82.9808 31.875 82.9808 32.883V46.1886H75.8968V46.183Z" style="fill: rgb(0, 0, 0);"/>
  <path d="M106.137 27.3786C106.002 30.6714 98.4872 35.3754 86.7608 35.3754V39.4018C99.6856 39.4018 110.169 33.981 110.169 27.289C110.169 26.1242 109.85 24.9986 109.25 23.9346C108.562 25.1778 107.509 26.337 106.137 27.3786Z" style="fill: rgb(0, 0, 0);"/>
  <path d="M106.137 20.6754C106.008 23.9682 98.4872 28.6722 86.7664 28.6722V32.6986C99.6912 32.6986 110.174 27.2778 110.174 20.5858C110.174 19.421 109.85 18.2954 109.256 17.2314C108.562 18.4746 107.509 19.6338 106.137 20.6754Z" style="fill: rgb(0, 0, 0);"/>
  <path d="M103.292 16.6879C104.451 15.7807 105.28 14.7783 105.28 13.8767C105.28 13.6023 105.202 13.3223 105.067 13.0367C100.778 10.2535 94.1752 8.47266 86.7608 8.47266C80.2368 8.47266 74.34 9.85586 70.0952 12.0791L74.6592 14.4647C78.1312 13.1991 82.3872 12.4991 86.7664 12.4991C94.2816 12.4935 100.072 14.4311 103.292 16.6879Z" style="fill: rgb(0, 0, 0);"/>
  <path d="M95.3848 20.143C97.2608 19.7006 98.9968 19.107 100.52 18.379C100.839 18.2278 101.164 18.0598 101.478 17.8806C97.4568 16.195 92.344 15.1758 86.7608 15.1758C80.2368 15.1758 74.34 16.559 70.0952 18.7822L74.6592 21.1678C78.1312 19.9022 82.3872 19.1966 86.7664 19.1966C89.9808 19.2022 92.8704 19.5606 95.3848 20.143Z" style="fill: rgb(0, 0, 0);"/>
  <path d="M110.169 13.877C110.169 7.18496 99.6912 1.76416 86.7608 1.76416C80.2368 1.76416 74.34 3.14736 70.0952 5.37056L74.6592 7.75616C78.1312 6.49056 82.3872 5.78496 86.7664 5.78496C98.5992 5.78496 106.148 10.573 106.148 13.8714C106.148 17.1698 98.5992 21.9578 86.7664 21.9578V25.9842C99.6912 25.9898 110.169 20.569 110.169 13.877Z" style="fill: rgb(0, 0, 0);"/>
</svg>