<svg width="73" height="36" viewBox="0 0 73 36" fill="none" xmlns="http://www.w3.org/2000/svg">
<path d="M70.9731 35.5979C70.767 35.5982 70.5633 35.5543 70.3756 35.4693C70.1879 35.3842 70.0206 35.2599 69.885 35.1048C59.689 23.4656 52.0442 17.5553 45.9108 13.3091C41.4637 10.2303 37.5765 9.00353 34.3578 9.66248C31.7399 10.1984 30.1056 11.8788 29.1954 13.1944C28.2254 14.5961 27.701 16.3884 27.7181 18.2414C27.7255 19.0398 27.0842 19.6931 26.2859 19.7005H26.2722C25.4799 19.7005 24.8342 19.0621 24.8267 18.2682C24.8039 15.8237 25.511 13.4375 26.8176 11.549C27.8094 10.1155 30.0327 7.59647 33.7778 6.82967C37.7998 6.00634 42.4359 7.38658 47.5566 10.9318C53.8354 15.2787 61.6566 21.3235 72.0599 33.1995C72.5861 33.8002 72.5256 34.7135 71.9251 35.2397C71.6618 35.4709 71.3234 35.5981 70.9731 35.5978" fill="#001D6C"/>
<path d="M1.44514 35.5979C1.0948 35.5982 0.756342 35.4709 0.493092 35.2397C-0.107448 34.7135 -0.167895 33.8002 0.358284 33.1995C10.7616 21.3235 18.5828 15.2787 24.8616 10.9318C29.9825 7.38658 34.6183 6.00634 38.6404 6.82967C42.3857 7.59647 44.6088 10.1156 45.6006 11.5492C46.9072 13.4373 47.614 15.8237 47.5915 18.2682C47.5841 19.0621 46.9382 19.7003 46.146 19.7003H46.1324C45.3337 19.6931 44.6927 19.0398 44.7001 18.2414C44.7174 16.3884 44.1926 14.5961 43.2228 13.1944C42.3125 11.8788 40.6781 10.1982 38.0604 9.66248C34.8414 9.00338 30.9544 10.2304 26.5074 13.3091C20.374 17.5555 12.7291 23.4655 2.53316 35.1048C2.39756 35.2599 2.23029 35.3842 2.04261 35.4693C1.85493 35.5543 1.6512 35.5982 1.44514 35.5979Z" fill="#001D6C"/>
<path d="M1.44514 0.401979C1.0948 0.401654 0.756342 0.52899 0.493092 0.760159C-0.107448 1.28634 -0.167895 2.19968 0.358284 2.80037C10.7616 14.6764 18.5828 20.7212 24.8616 25.068C29.9825 28.6133 34.6183 29.9935 38.6404 29.1702C42.3857 28.4034 44.6088 25.8843 45.6006 24.4507C46.9072 22.5625 47.614 20.1762 47.5915 17.7317C47.5841 16.9378 46.9382 16.2995 46.146 16.2995H46.1324C45.3337 16.3068 44.6927 16.9601 44.7001 17.7585C44.7174 19.6114 44.1926 21.4038 43.2228 22.8055C42.3125 24.1211 40.6781 25.8016 38.0604 26.3374C34.8414 26.9965 30.9544 25.7695 26.5074 22.6908C20.374 18.4444 12.7291 12.5344 2.53316 0.89511C2.39756 0.739955 2.23029 0.615659 2.04261 0.530596C1.85493 0.445532 1.6512 0.401675 1.44514 0.401979Z" fill="#001D6C"/>
<path d="M36.0932 29.4276C35.2983 29.4276 34.5241 29.3506 33.7715 29.1966C30.0262 28.4298 27.8031 25.9105 26.8113 24.4772C25.5047 22.5889 24.7976 20.2025 24.8204 17.7582C24.8277 16.9643 25.4737 16.3259 26.2658 16.3259H26.2795C27.0779 16.3331 27.7191 16.9866 27.7117 17.785C27.6945 19.6379 28.2191 21.4303 29.1889 22.832C30.0993 24.1474 31.7336 25.828 34.3513 26.3639C37.5703 27.0228 41.4573 25.796 45.9043 22.7173C52.038 18.4708 59.6828 12.5607 69.8788 0.9216C70.405 0.32106 71.3182 0.260616 71.9189 0.786795C72.5194 1.31283 72.5799 2.22617 72.0537 2.82686C61.6504 14.7029 53.8292 20.7477 47.5504 25.0945C43.3878 27.9762 39.5455 29.4276 36.0932 29.4276Z" fill="#001D6C"/>
</svg>
